<svg width="171" height="36" viewBox="0 0 171 36" fill="none" xmlns="http://www.w3.org/2000/svg">
<path d="M24.8 24.7108C24.8 31.292 19.1652 36 12.5265 36C5.88784 36 0 31.2293 0 24.6481C0 18.0668 9.55306 7.02438 12.1469 -1.2625e-05C14.6143 6.58535 24.8 18.1296 24.8 24.7108Z" fill="#14AAFF"/>
<g clip-path="url(#clip0_1114_82)">
<path d="M8.37881 13.2273C8.03132 13.353 7.75776 13.6931 7.7097 14.0554C7.66164 14.4584 7.89823 14.8835 8.2753 15.072C8.44905 15.157 8.47862 15.1607 9.59135 15.1718L10.7263 15.1829V15.5378V15.889L10.8704 16.0332C11.0109 16.1736 11.0183 16.1773 11.2771 16.1773H11.5395V16.9906V17.8039H10.9407C10.4083 17.8039 10.3233 17.8113 10.2198 17.8779C10.0387 17.9851 9.9869 18.1218 9.9869 18.4804V18.7909L9.67268 18.8131C9.41021 18.8279 9.32888 18.8501 9.20689 18.9314C8.9629 19.0904 8.91484 19.242 8.91484 19.863C8.91484 20.436 8.93702 20.5358 9.10707 20.7133L9.22167 20.8316L8.92963 21.1199C8.76697 21.2789 8.54147 21.5339 8.42687 21.6892C8.12004 22.0995 8.10525 22.1069 7.50268 22.1217L6.99622 22.1365L6.95926 21.9923C6.91489 21.8334 6.78181 21.6744 6.61915 21.5931C6.52674 21.5413 6.37886 21.5339 5.73933 21.545L4.9704 21.5561L4.83732 21.6596C4.74859 21.7262 4.68205 21.8223 4.63769 21.9443L4.57115 22.1291H3.89464H3.21444L3.10723 22.2363L3.00003 22.3435V24.6799C3.00003 27.2491 2.99263 27.1826 3.22553 27.2639C3.29577 27.2861 3.60629 27.3046 3.96488 27.3046H4.58224L4.60812 27.4155C4.64139 27.5707 4.80035 27.7445 4.97779 27.8258C5.10348 27.885 5.22548 27.8961 5.79108 27.8961C6.35668 27.8961 6.47868 27.885 6.60437 27.8258C6.78551 27.7445 6.87423 27.6484 6.93708 27.4635L6.98513 27.3231L7.39917 27.312C7.9352 27.2972 8.10525 27.3674 8.40099 27.7149C9.32149 28.8055 10.2679 29.3969 11.4841 29.652C12.0645 29.774 13.1661 29.7629 13.5025 29.6298C13.5986 29.5929 13.6837 29.4635 13.6837 29.3563C13.6837 29.3267 13.643 29.2602 13.5949 29.2047L13.5099 29.1012L13.0811 29.153C11.4841 29.3378 10.0276 28.7685 9.00726 27.5597C8.44166 26.8868 8.23833 26.7833 7.4842 26.7575L6.99253 26.7427V24.7168V22.691L7.53965 22.6762C8.30118 22.6578 8.44166 22.5912 8.85939 22.033C9.09968 21.7188 9.60244 21.2308 9.8797 21.0423L10.0793 20.9092H12.4674H14.8555L15.0367 21.0275C15.2918 21.1975 15.8315 21.7262 16.0681 22.0367C16.4858 22.5912 16.6263 22.6578 17.3915 22.6762L17.9349 22.691V24.7168V26.7427L17.447 26.7575C16.6928 26.7796 16.4673 26.9016 15.935 27.5412C15.6171 27.9293 15.2141 28.2805 14.8001 28.5356C14.4452 28.7537 14.4119 28.787 14.4119 28.9311C14.4119 29.0753 14.5191 29.1899 14.6559 29.1899C14.9997 29.1899 15.813 28.5467 16.5265 27.7149C16.8185 27.3748 16.9849 27.3046 17.5172 27.3046H17.9275L17.9719 27.4303C18.0311 27.6151 18.1493 27.7482 18.3194 27.8258C18.4488 27.885 18.5671 27.8961 19.1364 27.8961C19.702 27.8961 19.824 27.885 19.9497 27.8258C20.1271 27.7445 20.2861 27.5707 20.3193 27.4155L20.3452 27.3046H20.9626C21.3212 27.3046 21.6317 27.2861 21.7019 27.2639C21.9348 27.1826 21.9274 27.2491 21.9274 24.6799V22.3435L21.8202 22.2363L21.713 22.1291H21.0328H20.3563L20.2898 21.9443C20.2454 21.8223 20.1789 21.7262 20.0901 21.6596L19.9571 21.5561L19.1881 21.545C18.5486 21.5339 18.4007 21.5413 18.3083 21.5931C18.1457 21.6744 18.0126 21.8334 17.9682 21.9923L17.9312 22.1365L17.4248 22.1217C16.8222 22.1069 16.8074 22.0995 16.5006 21.6892C16.386 21.5339 16.1605 21.2789 15.9978 21.1199L15.7058 20.8316L15.8204 20.7133C15.9904 20.5358 16.0126 20.436 16.0126 19.863C16.0126 19.242 15.9646 19.0904 15.7206 18.9314C15.5986 18.8501 15.5173 18.8279 15.2548 18.8131L14.9406 18.7909V18.4804C14.9406 18.1218 14.8888 17.9851 14.7077 17.8779C14.6042 17.8113 14.5191 17.8039 13.9905 17.8039H13.3879V16.9906V16.1773H13.6504C13.9092 16.1773 13.9166 16.1736 14.057 16.0332L14.2012 15.889V15.5378V15.1829L15.3398 15.1718L16.4747 15.1607L16.6632 15.0609C17.4581 14.6432 17.3804 13.512 16.5339 13.2273C16.4414 13.1941 15.5875 13.183 13.4249 13.183H10.4416L10.364 13.268C10.2568 13.3826 10.2605 13.5342 10.3751 13.6451L10.4638 13.7375H13.4249H16.3823L16.5228 13.8632C16.6411 13.9741 16.6596 14.011 16.6596 14.1552C16.6596 14.3622 16.556 14.5138 16.3786 14.5766C16.1975 14.6395 8.73 14.6395 8.54886 14.5766C8.37142 14.5138 8.26791 14.3622 8.26791 14.1552C8.26791 14.011 8.28639 13.9741 8.40469 13.8632C8.54517 13.7375 8.54517 13.7375 8.91114 13.7375C9.31779 13.7375 9.43978 13.7005 9.50263 13.5637C9.56177 13.4307 9.55438 13.3752 9.45087 13.2754C9.36585 13.1867 9.33997 13.183 8.92593 13.1867C8.68564 13.1867 8.44166 13.2052 8.37881 13.2273ZM13.6467 15.401V15.6228H12.4637H11.2808V15.401V15.1792H12.4637H13.6467V15.401ZM12.826 16.998L12.8334 17.8039H12.4637H12.0941V17.0165C12.0941 16.5803 12.1051 16.2143 12.1199 16.1995C12.1347 16.1847 12.2974 16.181 12.4822 16.1847L12.8149 16.1958L12.826 16.998ZM14.386 18.5802V18.802H12.4637H10.5414V18.5802V18.3584H12.4637H14.386V18.5802ZM15.4137 19.3861C15.447 19.412 15.4581 19.534 15.4507 19.8778L15.4396 20.3362H12.4637H9.48784L9.47675 19.8778C9.46936 19.534 9.48045 19.412 9.51372 19.3861C9.53959 19.3713 10.8667 19.3566 12.4637 19.3566C14.0607 19.3566 15.3879 19.3713 15.4137 19.3861ZM5.51382 24.7205V27.3452L5.34008 27.3341L5.16263 27.3231L5.15154 24.7058L5.14415 22.0922H5.32898H5.51382V24.7205ZM6.41953 24.7168V27.3231L6.24578 27.3341L6.06834 27.3452V24.7168V22.0885L6.24578 22.0995L6.41953 22.1106V24.7168ZM18.8591 22.7021C18.8591 23.3047 18.8591 23.3158 18.9515 23.4045C19.0624 23.5191 19.214 23.5228 19.3286 23.4156C19.4099 23.338 19.4136 23.3158 19.4136 22.7132V22.0922H19.5985H19.7833L19.7759 24.7058L19.7648 27.3231L19.5911 27.3341L19.4136 27.3452V25.8813V24.4174L19.3175 24.3213C19.2436 24.2474 19.2029 24.2326 19.1068 24.2511C18.8554 24.2991 18.8591 24.2658 18.8591 25.8887V27.3452L18.6854 27.3341L18.5079 27.3231L18.4968 24.7538C18.4931 23.3417 18.4968 22.1624 18.5079 22.1365C18.5153 22.1106 18.593 22.0922 18.6928 22.0922H18.8591V22.7021ZM4.58963 24.7168V26.7501H4.07209H3.55454V24.7168V22.6836H4.07209H4.58963V24.7168ZM21.3729 24.7168V26.7501H20.8554H20.3378V24.7168V22.6836H20.8554H21.3729V24.7168Z" fill="white" fill-opacity="0.92"/>
</g>
<path d="M2.35842 21.796C1.62703 25.7019 2.86405 28.5584 1.88592 28.4105C1.21077 28.7602 -0.128202 26.5181 0.940727 21.796C1.98805 18.2915 5.32801 12.7917 5.66556 13.2917C6.03843 13.2917 3.04225 18.1442 2.35842 21.796Z" fill="white"/>
<path d="M34.3838 32V20.8H36.0798L40.9918 28.976H40.0798L44.9118 20.8H46.6078L46.6398 32H44.6558L44.6398 23.888H45.0558L40.9598 30.72H40.0318L35.8718 23.888H36.3518V32H34.3838ZM49.9341 30.24C50.5207 30.4427 51.0381 30.496 51.4861 30.4C51.9341 30.304 52.3341 29.9787 52.6861 29.424L53.2301 28.576L53.4381 28.352L57.3421 20.8H59.3901L54.5261 29.84C54.1314 30.5973 53.6621 31.1733 53.1181 31.568C52.5741 31.9627 51.9874 32.1813 51.3581 32.224C50.7394 32.2773 50.0941 32.16 49.4221 31.872L49.9341 30.24ZM53.3901 30.144L48.3981 20.8H50.6221L54.5261 28.544L53.3901 30.144ZM60.8526 32V20.8H70.7566V32H68.7086V22.048L69.1886 22.56H62.4206L62.9006 22.048V32H60.8526Z" fill="#1E2337"/>
<path d="M78.3526 32V20.8H83.3606C84.6192 20.8 85.6006 21.0507 86.3046 21.552C87.0086 22.0427 87.3606 22.752 87.3606 23.68C87.3606 24.5973 87.0246 25.3067 86.3526 25.808C85.6806 26.2987 84.7952 26.544 83.6966 26.544L83.9846 25.968C85.2326 25.968 86.1979 26.2187 86.8806 26.72C87.5632 27.2213 87.9046 27.9467 87.9046 28.896C87.9046 29.8667 87.5472 30.6293 86.8326 31.184C86.1179 31.728 85.0619 32 83.6646 32H78.3526ZM80.4006 30.4H83.6006C84.3259 30.4 84.8752 30.2667 85.2486 30C85.6219 29.7227 85.8086 29.3013 85.8086 28.736C85.8086 28.1707 85.6219 27.76 85.2486 27.504C84.8752 27.2373 84.3259 27.104 83.6006 27.104H80.4006V30.4ZM80.4006 25.584H83.1846C83.8566 25.584 84.3686 25.4507 84.7206 25.184C85.0726 24.9067 85.2486 24.512 85.2486 24C85.2486 23.4667 85.0726 23.0667 84.7206 22.8C84.3686 22.5333 83.8566 22.4 83.1846 22.4H80.4006V25.584ZM93.8581 32.112C92.9834 32.112 92.2047 31.9253 91.5221 31.552C90.8394 31.168 90.3007 30.6453 89.9061 29.984C89.5114 29.3227 89.3141 28.5707 89.3141 27.728C89.3141 26.8747 89.5114 26.1227 89.9061 25.472C90.3007 24.8107 90.8394 24.2933 91.5221 23.92C92.2047 23.5467 92.9834 23.36 93.8581 23.36C94.7434 23.36 95.5274 23.5467 96.2101 23.92C96.9034 24.2933 97.4421 24.8053 97.8261 25.456C98.2207 26.1067 98.4181 26.864 98.4181 27.728C98.4181 28.5707 98.2207 29.3227 97.8261 29.984C97.4421 30.6453 96.9034 31.168 96.2101 31.552C95.5274 31.9253 94.7434 32.112 93.8581 32.112ZM93.8581 30.4C94.3487 30.4 94.7861 30.2933 95.1701 30.08C95.5541 29.8667 95.8527 29.5573 96.0661 29.152C96.2901 28.7467 96.4021 28.272 96.4021 27.728C96.4021 27.1733 96.2901 26.6987 96.0661 26.304C95.8527 25.8987 95.5541 25.5893 95.1701 25.376C94.7861 25.1627 94.3541 25.056 93.8741 25.056C93.3834 25.056 92.9461 25.1627 92.5621 25.376C92.1887 25.5893 91.8901 25.8987 91.6661 26.304C91.4421 26.6987 91.3301 27.1733 91.3301 27.728C91.3301 28.272 91.4421 28.7467 91.6661 29.152C91.8901 29.5573 92.1887 29.8667 92.5621 30.08C92.9461 30.2933 93.3781 30.4 93.8581 30.4ZM106.156 31.072V25.152H102.876L102.828 26.528C102.807 27.0187 102.775 27.4933 102.732 27.952C102.689 28.4 102.62 28.816 102.524 29.2C102.428 29.5733 102.289 29.8827 102.108 30.128C101.927 30.3733 101.687 30.5333 101.388 30.608L99.4041 30.304C99.7241 30.304 99.9801 30.2027 100.172 30C100.375 29.7867 100.529 29.4987 100.636 29.136C100.753 28.7627 100.839 28.3413 100.892 27.872C100.945 27.392 100.983 26.896 101.004 26.384L101.116 23.456H108.156V31.072H106.156ZM99.1001 33.904V30.304H109.42V33.904H107.548V32H100.956V33.904H99.1001ZM115.014 32.112C114.14 32.112 113.361 31.9253 112.678 31.552C111.996 31.168 111.457 30.6453 111.062 29.984C110.668 29.3227 110.47 28.5707 110.47 27.728C110.47 26.8747 110.668 26.1227 111.062 25.472C111.457 24.8107 111.996 24.2933 112.678 23.92C113.361 23.5467 114.14 23.36 115.014 23.36C115.9 23.36 116.684 23.5467 117.366 23.92C118.06 24.2933 118.598 24.8053 118.982 25.456C119.377 26.1067 119.574 26.864 119.574 27.728C119.574 28.5707 119.377 29.3227 118.982 29.984C118.598 30.6453 118.06 31.168 117.366 31.552C116.684 31.9253 115.9 32.112 115.014 32.112ZM115.014 30.4C115.505 30.4 115.942 30.2933 116.326 30.08C116.71 29.8667 117.009 29.5573 117.222 29.152C117.446 28.7467 117.558 28.272 117.558 27.728C117.558 27.1733 117.446 26.6987 117.222 26.304C117.009 25.8987 116.71 25.5893 116.326 25.376C115.942 25.1627 115.51 25.056 115.03 25.056C114.54 25.056 114.102 25.1627 113.718 25.376C113.345 25.5893 113.046 25.8987 112.822 26.304C112.598 26.6987 112.486 27.1733 112.486 27.728C112.486 28.272 112.598 28.7467 112.822 29.152C113.046 29.5573 113.345 29.8667 113.718 30.08C114.102 30.2933 114.534 30.4 115.014 30.4ZM127.678 32L124.59 27.904L126.222 26.896L130.03 32H127.678ZM121.55 32V23.456H123.55V32H121.55ZM122.958 28.576V26.912H125.854V28.576H122.958ZM126.414 27.968L124.542 27.744L127.678 23.456H129.822L126.414 27.968ZM136.468 32V30.272L136.356 29.904V26.88C136.356 26.2933 136.18 25.84 135.828 25.52C135.476 25.1893 134.943 25.024 134.228 25.024C133.748 25.024 133.274 25.0987 132.804 25.248C132.346 25.3973 131.956 25.6053 131.636 25.872L130.852 24.416C131.311 24.064 131.855 23.8027 132.484 23.632C133.124 23.4507 133.786 23.36 134.468 23.36C135.706 23.36 136.66 23.6587 137.332 24.256C138.015 24.8427 138.356 25.7547 138.356 26.992V32H136.468ZM133.78 32.112C133.14 32.112 132.58 32.0053 132.1 31.792C131.62 31.568 131.247 31.264 130.98 30.88C130.724 30.4853 130.596 30.0427 130.596 29.552C130.596 29.072 130.708 28.64 130.932 28.256C131.167 27.872 131.546 27.568 132.068 27.344C132.591 27.12 133.284 27.008 134.148 27.008H136.628V28.336H134.292C133.61 28.336 133.151 28.448 132.916 28.672C132.682 28.8853 132.564 29.152 132.564 29.472C132.564 29.8347 132.708 30.1227 132.996 30.336C133.284 30.5493 133.684 30.656 134.196 30.656C134.687 30.656 135.124 30.544 135.508 30.32C135.903 30.096 136.186 29.7653 136.356 29.328L136.692 30.528C136.5 31.0293 136.154 31.4187 135.652 31.696C135.162 31.9733 134.538 32.112 133.78 32.112ZM140.831 32V23.456H142.831V26.928H147.135V23.456H149.135V32H147.135V28.624H142.831V32H140.831ZM157 32V30.272L156.888 29.904V26.88C156.888 26.2933 156.712 25.84 156.36 25.52C156.008 25.1893 155.474 25.024 154.76 25.024C154.28 25.024 153.805 25.0987 153.336 25.248C152.877 25.3973 152.488 25.6053 152.168 25.872L151.384 24.416C151.842 24.064 152.386 23.8027 153.016 23.632C153.656 23.4507 154.317 23.36 155 23.36C156.237 23.36 157.192 23.6587 157.864 24.256C158.546 24.8427 158.888 25.7547 158.888 26.992V32H157ZM154.312 32.112C153.672 32.112 153.112 32.0053 152.632 31.792C152.152 31.568 151.778 31.264 151.512 30.88C151.256 30.4853 151.128 30.0427 151.128 29.552C151.128 29.072 151.24 28.64 151.464 28.256C151.698 27.872 152.077 27.568 152.6 27.344C153.122 27.12 153.816 27.008 154.68 27.008H157.16V28.336H154.824C154.141 28.336 153.682 28.448 153.448 28.672C153.213 28.8853 153.096 29.152 153.096 29.472C153.096 29.8347 153.24 30.1227 153.528 30.336C153.816 30.5493 154.216 30.656 154.728 30.656C155.218 30.656 155.656 30.544 156.04 30.32C156.434 30.096 156.717 29.7653 156.888 29.328L157.224 30.528C157.032 31.0293 156.685 31.4187 156.184 31.696C155.693 31.9733 155.069 32.112 154.312 32.112ZM160.115 31.984L160.211 30.304C160.285 30.3147 160.355 30.3253 160.419 30.336C160.483 30.3467 160.541 30.352 160.595 30.352C160.925 30.352 161.181 30.2507 161.363 30.048C161.544 29.8453 161.677 29.5733 161.763 29.232C161.859 28.88 161.923 28.4907 161.955 28.064C161.997 27.6267 162.029 27.1893 162.051 26.752L162.195 23.456H169.107V32H167.107V24.608L167.571 25.152H163.507L163.939 24.592L163.827 26.848C163.795 27.6053 163.731 28.3093 163.635 28.96C163.549 29.6 163.411 30.16 163.219 30.64C163.037 31.12 162.781 31.4933 162.451 31.76C162.131 32.0267 161.72 32.16 161.219 32.16C161.059 32.16 160.883 32.144 160.691 32.112C160.509 32.08 160.317 32.0373 160.115 31.984Z" fill="#14AAFF"/>
<path d="M33.9108 12V6.225H38.0028V6.907H34.4938L34.6918 6.709V12H33.9108ZM38.6924 12.055C38.531 12.055 38.3917 11.9963 38.2744 11.879C38.1644 11.7617 38.1094 11.6187 38.1094 11.45C38.1094 11.274 38.1644 11.131 38.2744 11.021C38.3917 10.911 38.531 10.856 38.6924 10.856C38.8537 10.856 38.9894 10.911 39.0994 11.021C39.2167 11.131 39.2754 11.274 39.2754 11.45C39.2754 11.6187 39.2167 11.7617 39.0994 11.879C38.9894 11.9963 38.8537 12.055 38.6924 12.055ZM48.6873 12V9.448L48.9073 9.668H46.3883C45.7723 9.668 45.2443 9.56167 44.8043 9.349C44.3717 9.13633 44.038 8.83567 43.8033 8.447C43.576 8.051 43.4623 7.578 43.4623 7.028C43.4623 6.44133 43.587 5.94633 43.8363 5.543C44.0857 5.13233 44.4377 4.82433 44.8923 4.619C45.3543 4.40633 45.8897 4.3 46.4983 4.3H49.4903V12H48.6873ZM43.4623 12L45.3543 9.294H46.1903L44.3313 12H43.4623ZM48.6873 9.217V4.773L48.9073 5.004H46.5313C45.8127 5.004 45.2553 5.17633 44.8593 5.521C44.4707 5.85833 44.2763 6.35333 44.2763 7.006C44.2763 7.63667 44.4597 8.12433 44.8263 8.469C45.193 8.80633 45.7357 8.975 46.4543 8.975H48.9073L48.6873 9.217ZM54.885 12.055C54.3863 12.055 53.9353 11.9413 53.532 11.714C53.1286 11.4793 52.806 11.1457 52.564 10.713C52.3293 10.273 52.212 9.73767 52.212 9.107C52.212 8.47633 52.3293 7.94467 52.564 7.512C52.7986 7.072 53.1176 6.73833 53.521 6.511C53.9243 6.28367 54.379 6.17 54.885 6.17C55.435 6.17 55.9263 6.29467 56.359 6.544C56.799 6.786 57.1436 7.13067 57.393 7.578C57.6423 8.018 57.767 8.52767 57.767 9.107C57.767 9.69367 57.6423 10.207 57.393 10.647C57.1436 11.087 56.799 11.4317 56.359 11.681C55.9263 11.9303 55.435 12.055 54.885 12.055ZM51.904 14.134V6.225H52.652V7.963L52.575 9.118L52.685 10.284V14.134H51.904ZM54.83 11.362C55.2406 11.362 55.6073 11.2703 55.93 11.087C56.2526 10.8963 56.5093 10.6323 56.7 10.295C56.8906 9.95033 56.986 9.55433 56.986 9.107C56.986 8.65967 56.8906 8.26733 56.7 7.93C56.5093 7.59267 56.2526 7.32867 55.93 7.138C55.6073 6.94733 55.2406 6.852 54.83 6.852C54.4193 6.852 54.049 6.94733 53.719 7.138C53.3963 7.32867 53.1396 7.59267 52.949 7.93C52.7656 8.26733 52.674 8.65967 52.674 9.107C52.674 9.55433 52.7656 9.95033 52.949 10.295C53.1396 10.6323 53.3963 10.8963 53.719 11.087C54.049 11.2703 54.4193 11.362 54.83 11.362ZM62.9988 12V10.724L62.9658 10.515V8.381C62.9658 7.88967 62.8264 7.512 62.5478 7.248C62.2764 6.984 61.8694 6.852 61.3268 6.852C60.9528 6.852 60.5971 6.91433 60.2598 7.039C59.9224 7.16367 59.6364 7.32867 59.4018 7.534L59.0498 6.951C59.3431 6.70167 59.6951 6.511 60.1058 6.379C60.5164 6.23967 60.9491 6.17 61.4038 6.17C62.1518 6.17 62.7274 6.357 63.1308 6.731C63.5414 7.09767 63.7468 7.65867 63.7468 8.414V12H62.9988ZM61.0078 12.055C60.5751 12.055 60.1974 11.9853 59.8748 11.846C59.5594 11.6993 59.3174 11.5013 59.1488 11.252C58.9801 10.9953 58.8958 10.702 58.8958 10.372C58.8958 10.0713 58.9654 9.8 59.1048 9.558C59.2514 9.30867 59.4861 9.11067 59.8088 8.964C60.1388 8.81 60.5788 8.733 61.1288 8.733H63.1198V9.316H61.1508C60.5934 9.316 60.2048 9.415 59.9848 9.613C59.7721 9.811 59.6658 10.0567 59.6658 10.35C59.6658 10.68 59.7941 10.944 60.0508 11.142C60.3074 11.34 60.6668 11.439 61.1288 11.439C61.5688 11.439 61.9464 11.34 62.2618 11.142C62.5844 10.9367 62.8191 10.6433 62.9658 10.262L63.1418 10.801C62.9951 11.1823 62.7384 11.4867 62.3718 11.714C62.0124 11.9413 61.5578 12.055 61.0078 12.055ZM65.8258 12V6.225H66.6068V8.777H70.2478V6.225H71.0288V12H70.2478V9.448H66.6068V12H65.8258ZM75.6687 12.055C75.0967 12.055 74.5834 11.9303 74.1287 11.681C73.6814 11.4243 73.3294 11.076 73.0727 10.636C72.816 10.1887 72.6877 9.679 72.6877 9.107C72.6877 8.52767 72.816 8.018 73.0727 7.578C73.3294 7.138 73.6814 6.79333 74.1287 6.544C74.5834 6.29467 75.0967 6.17 75.6687 6.17C76.16 6.17 76.6037 6.26533 76.9997 6.456C77.3957 6.64667 77.7074 6.93267 77.9347 7.314L77.3517 7.71C77.1537 7.41667 76.908 7.20033 76.6147 7.061C76.3214 6.92167 76.0024 6.852 75.6577 6.852C75.247 6.852 74.8767 6.94733 74.5467 7.138C74.2167 7.32133 73.9564 7.58167 73.7657 7.919C73.575 8.25633 73.4797 8.65233 73.4797 9.107C73.4797 9.56167 73.575 9.95767 73.7657 10.295C73.9564 10.6323 74.2167 10.8963 74.5467 11.087C74.8767 11.2703 75.247 11.362 75.6577 11.362C76.0024 11.362 76.3214 11.2923 76.6147 11.153C76.908 11.0137 77.1537 10.801 77.3517 10.515L77.9347 10.911C77.7074 11.285 77.3957 11.571 76.9997 11.769C76.6037 11.9597 76.16 12.055 75.6687 12.055ZM83.6819 12L81.3059 9.14L81.9549 8.755L84.6059 12H83.6819ZM79.4469 12V6.225H80.2279V12H79.4469ZM79.9859 9.426V8.755H81.8449V9.426H79.9859ZM82.0209 9.195L81.2949 9.085L83.5939 6.225H84.4409L82.0209 9.195Z" fill="#1E2337"/>
<defs>
<clipPath id="clip0_1114_82">
<rect width="20" height="20" fill="white" transform="translate(3 12)"/>
</clipPath>
</defs>
</svg>
