<svg width="90" height="91" viewBox="0 0 90 91" fill="none" xmlns="http://www.w3.org/2000/svg">
<path d="M43.2916 0.185127C41.6008 0.73111 39.9628 2.29863 39.4168 3.86614C38.3072 7.12446 40.1389 10.6646 43.4677 11.6333C43.7495 11.7213 43.7671 12.0912 43.7671 16.0188V20.2986L42.0411 20.51C37.4442 21.0912 33.0763 22.9405 29.501 25.8113L28.18 26.8681L25.2035 23.8916L22.227 20.9327L22.7202 19.8055C24.0235 16.8994 22.8258 13.5354 19.9726 12.1088C18.5988 11.4219 17.3659 11.281 15.9746 11.6333C13.227 12.3378 11.4658 14.5746 11.4481 17.3749C11.4481 18.5374 11.5362 18.872 12.0294 19.8759C13.0861 22.0423 15.0059 23.2575 17.3483 23.2575C18.317 23.2399 18.8982 23.1519 19.5323 22.8701C20.0078 22.6587 20.4834 22.4826 20.589 22.4826C20.8708 22.4826 26.5068 28.1538 26.5068 28.4356C26.5068 28.5589 26.0841 29.1577 25.591 29.7742C22.8258 33.1205 20.6947 38.3867 20.3953 42.5961L20.2896 44.146H16.0098C11.9589 44.146 11.7123 44.1284 11.7123 43.829C11.7123 43.2125 10.638 41.3632 9.91585 40.7115C7.57339 38.5804 4.22701 38.5628 1.95499 40.6411C0.528376 41.9444 0 43.1245 0 45.0266C0 46.3123 0.0704501 46.6646 0.493151 47.5276C1.1272 48.8309 2.58904 50.1695 3.82192 50.5922C4.38552 50.7859 5.24853 50.9268 6.00587 50.9092C8.26027 50.9092 10.3209 49.5354 11.3072 47.3867L11.7299 46.4356H16.045H20.3425V47.0168C20.3425 48.144 20.9061 50.9444 21.4873 52.7233C22.456 55.6117 23.865 58.236 25.7671 60.5961L26.7358 61.7937L23.7417 64.7879L20.7652 67.7644L19.726 67.2888C17.5949 66.3025 15.0763 66.7605 13.2446 68.4337C11.6243 69.9307 11.0078 72.5374 11.7828 74.7566C12.2055 75.9718 13.5616 77.4513 14.7945 78.0501C17.8063 79.4591 21.3464 78.1558 22.7378 75.1088C23.4247 73.5941 23.4423 71.8153 22.773 70.371L22.3151 69.3847L25.3444 66.373L28.3562 63.3612L29.0607 63.9953C31.0157 65.7213 34.3973 67.6059 37.1448 68.5217C38.818 69.0853 41.7065 69.6841 42.6751 69.6841C44.0137 69.6841 43.9432 69.42 43.9432 74.1049V78.2967L43.3268 78.4728C40.8963 79.1421 39.1174 81.5021 39.1174 84.0384C39.0998 85.7292 39.5401 86.9092 40.6145 88.0892C41.9178 89.4982 43.0978 90.0266 45 90.0266C46.2857 90.0266 46.638 89.9562 47.501 89.5335C49.7202 88.4415 51.182 85.9229 50.9178 83.6333C50.636 81.1851 48.8924 79.0892 46.6732 78.4728L46.0568 78.2967V74.1049C46.0568 69.42 45.9863 69.6841 47.3249 69.6841C48.2935 69.6841 51.182 69.0853 52.8552 68.5217C55.6027 67.6059 58.4031 66.056 60.7456 64.1538L61.7847 63.3084L64.7613 66.2849L67.7378 69.2614L67.2622 70.3006C66.593 71.7624 66.5753 73.5765 67.227 75.0031C67.8611 76.3945 68.9178 77.4689 70.2387 78.0677C71.1546 78.4904 71.5597 78.5785 72.7397 78.5785C73.9198 78.5785 74.3072 78.4904 75.135 78.0853C76.2975 77.5217 77.636 76.1656 78.1292 75.0736C79.1155 72.8368 78.5166 70.0892 76.6849 68.328C75.0822 66.8133 72.3346 66.3378 70.3444 67.2536L69.3581 67.7115L66.3464 64.6822L63.3346 61.6704L63.9511 60.9659C64.9022 59.874 66.364 57.602 67.1918 55.9816C68.5127 53.3221 69.6575 49.1127 69.6575 46.9288V46.2595H73.9726C77.9354 46.2595 78.3053 46.2771 78.3933 46.5589C78.6575 47.4571 79.4677 48.7957 80.0841 49.3593C82.409 51.4552 85.7906 51.4728 88.0626 49.4121C88.6262 48.8838 89.2074 48.1264 89.5069 47.5276C89.9296 46.6646 90 46.3123 90 45.0266C90 43.7409 89.9296 43.3886 89.5069 42.5256C88.8728 41.2223 87.411 39.8838 86.1781 39.4611C85.6145 39.2673 84.7515 39.144 84.0117 39.144C81.4755 39.144 79.1155 40.9229 78.4462 43.3534L78.2701 43.9699H73.9902H69.7104L69.5871 42.4904C69.2701 38.2634 67.1742 33.1382 64.3386 29.6685C63.775 28.9816 63.317 28.3652 63.317 28.3123C63.317 28.2595 64.6556 26.8681 66.2759 25.2477L69.2348 22.2888L70.274 22.7644C71.7358 23.4337 73.5499 23.4513 74.9765 22.7996C78.7632 21.056 79.7847 16.4239 77.0372 13.4297C74.6243 10.7879 70.7671 10.7526 68.3014 13.3417C66.7691 14.962 66.3112 17.6744 67.227 19.6822L67.6849 20.6685L64.6556 23.6978L61.6262 26.7272L60.4462 25.7585C58.0861 23.8211 54.9863 22.2184 51.8689 21.3202C50.2309 20.8446 47.5714 20.3691 46.5499 20.3691H45.8806V16.054C45.8806 11.9855 45.8982 11.7389 46.1977 11.7389C46.8141 11.7389 48.6634 10.6646 49.3151 9.94247C51.4462 7.6 51.4638 4.25362 49.3855 1.98161C48.2055 0.678276 46.955 0.0794525 45.2994 0.00900269C44.5421 -0.0262222 43.7319 0.0442276 43.2916 0.185127ZM47.0783 2.827C49.0509 4.18317 49.2094 7.10685 47.4129 8.69197C44.4716 11.281 40.0333 7.95225 41.6536 4.37691C42.3405 2.86223 43.4501 2.19296 45.1937 2.28101C46.1448 2.31624 46.4971 2.42191 47.0783 2.827ZM18.7221 13.9581C21.7867 15.2262 21.7867 19.5237 18.7221 20.7918C16.9256 21.5491 14.8297 20.6861 13.9843 18.872C13.5969 18.0442 13.5616 16.7057 13.8963 15.9131C14.1781 15.191 15.1468 14.2223 15.8513 13.9229C16.5734 13.6059 17.9296 13.6235 18.7221 13.9581ZM74.6595 14.2047C75.7162 14.9268 76.2446 15.8427 76.3151 17.0931C76.3679 17.9562 76.3151 18.3436 76.0333 18.8896C74.5362 21.7957 70.6262 21.7781 69.2877 18.872C68.4423 17.0579 69.2877 14.8916 71.1546 13.9933C72.1585 13.5178 73.7965 13.6235 74.6595 14.2047ZM49.0861 22.9405C53.7358 23.8211 57.4697 25.8113 60.8513 29.1753C64.1624 32.4689 66.1526 36.1499 67.1389 40.7996C67.3503 41.874 67.4384 43.0716 67.4384 45.0266C67.4384 48.0207 67.1918 49.6059 66.3112 52.283C63.6341 60.3319 56.4658 66.1793 47.8356 67.4121C46.0215 67.6587 42.2524 67.5178 40.4207 67.1303C31.5793 65.2106 24.9217 58.5354 22.9315 49.6059C22.4031 47.1753 22.4207 42.825 22.9667 40.3593C25.1683 30.5843 33.0235 23.6802 43.1507 22.5883C44.3483 22.465 47.5714 22.6587 49.0861 22.9405ZM7.39726 41.6626C9.65166 42.6841 10.2857 45.5902 8.66536 47.4395C7.22114 49.0775 4.75538 49.1303 3.18787 47.5628C2.50098 46.8759 2.20157 46.101 2.20157 45.0266C2.20157 43.9522 2.50098 43.1773 3.18787 42.4904C4.29746 41.3808 6.02348 41.0286 7.39726 41.6626ZM85.8082 41.7683C86.3718 42.0501 86.8826 42.4904 87.1996 42.9483C87.6575 43.6 87.7104 43.829 87.7104 45.0266C87.7104 46.2243 87.6575 46.4532 87.1996 47.1049C86.5656 48.0207 85.227 48.7252 84.1174 48.7252C80.9648 48.7076 79.274 44.9738 81.3346 42.6137C82.4795 41.3104 84.2055 40.9757 85.8082 41.7683ZM18.4579 69.1734C20.4129 69.7194 21.5753 72.1323 20.7652 74.0521C19.638 76.7644 15.9569 77.2047 14.2661 74.827C13.5793 73.8231 13.4384 72.2027 13.9667 71.1636C14.8826 69.4023 16.5734 68.645 18.4579 69.1734ZM74.0254 69.2614C74.8532 69.5961 75.5753 70.283 76.0333 71.1636C76.544 72.1675 76.4207 73.8055 75.7691 74.7213C74.8004 76.1303 73.0744 76.7115 71.5069 76.2008C70.0802 75.7252 68.9706 74.2106 68.953 72.7135C68.9354 70.1245 71.6654 68.2575 74.0254 69.2614ZM46.1096 80.6215C47.5362 81.009 48.681 82.5765 48.6986 84.144C48.6986 85.2536 47.9941 86.5922 47.0783 87.2262C46.4266 87.6841 46.1977 87.737 45 87.737C43.8023 87.737 43.5734 87.6841 42.9217 87.2262C42.4638 86.9092 42.0235 86.3984 41.7417 85.8348C40.2622 82.8583 42.8865 79.7233 46.1096 80.6215Z" fill="#2D9CDB"/>
<path d="M44.5598 31.8349C44.3661 31.9406 43.8553 32.5042 43.4326 33.103C42.9923 33.7018 41.0373 36.4142 39.0999 39.1441C36.3348 42.9836 35.4542 44.3398 35.1547 45.2204C33.3407 50.557 36.7223 56.5277 42.4111 58.0071C43.8201 58.377 46.1978 58.3594 47.6244 57.9895C50.9884 57.1265 53.8769 54.3966 54.916 51.103C55.1978 50.1872 55.3035 49.4474 55.3035 48.197C55.2859 45.3613 55.0921 44.9915 50.3896 38.4396C48.1528 35.3222 46.1626 32.557 45.9688 32.3105C45.5461 31.7645 45.053 31.606 44.5598 31.8349ZM48.6812 39.831C50.7242 42.7018 52.4326 45.2733 52.6792 45.8545C53.824 48.6725 52.6616 52.3359 49.9845 54.3966C45.7751 57.5844 39.8925 56.1578 37.6381 51.4024C37.0921 50.2576 36.9864 49.8525 36.9336 48.5668C36.8279 46.1891 37.0393 45.784 41.2487 39.9191C43.2565 37.1187 44.9473 34.829 45.0001 34.829C45.053 34.829 46.7086 37.0835 48.6812 39.831Z" fill="#2D9CDB"/>
<path d="M49.1746 47.281C49.0161 47.4571 48.8048 48.0207 48.6991 48.5138C48.611 49.0246 48.4173 49.6587 48.2588 49.9405C47.7304 50.9796 46.1805 51.8954 44.9476 51.8954C44.4897 51.8954 43.7676 52.5999 43.7676 53.0403C43.7676 53.1635 43.9261 53.4453 44.1022 53.6743C44.384 54.0266 44.5778 54.0794 45.3175 54.0442C46.568 53.9913 47.9946 53.4277 48.9457 52.5823C49.932 51.7017 50.795 50.0285 50.9359 48.69C51.0239 47.8446 50.9887 47.6684 50.6541 47.3338C50.1961 46.8759 49.5621 46.8583 49.1746 47.281Z" fill="#2D9CDB"/>
</svg>
