<svg xmlns="http://www.w3.org/2000/svg" version="1.1" xmlns:xlink="http://www.w3.org/1999/xlink" xmlns:svgjs="http://svgjs.com/svgjs" width="25" height="36"><svg width="25" height="36" viewBox="0 0 25 36" fill="none" xmlns="http://www.w3.org/2000/svg">
<path d="M24.8 24.7108C24.8 31.292 19.1652 36 12.5265 36C5.88784 36 0 31.2293 0 24.6481C0 18.0668 9.55306 7.02438 12.1469 -1.2625e-05C14.6143 6.58535 24.8 18.1296 24.8 24.7108Z" fill="#14AAFF"></path>
<g clip-path="url(#clip0_1114_83)">
<path d="M8.37881 13.2273C8.03132 13.353 7.75776 13.6931 7.7097 14.0554C7.66164 14.4584 7.89823 14.8835 8.2753 15.072C8.44905 15.157 8.47862 15.1607 9.59135 15.1718L10.7263 15.1829V15.5378V15.889L10.8704 16.0332C11.0109 16.1736 11.0183 16.1773 11.2771 16.1773H11.5395V16.9906V17.8039H10.9407C10.4083 17.8039 10.3233 17.8113 10.2198 17.8779C10.0387 17.9851 9.9869 18.1218 9.9869 18.4804V18.7909L9.67268 18.8131C9.41021 18.8279 9.32888 18.8501 9.20689 18.9314C8.9629 19.0904 8.91484 19.242 8.91484 19.863C8.91484 20.436 8.93702 20.5358 9.10707 20.7133L9.22167 20.8316L8.92963 21.1199C8.76697 21.2789 8.54147 21.5339 8.42687 21.6892C8.12004 22.0995 8.10525 22.1069 7.50268 22.1217L6.99622 22.1365L6.95926 21.9923C6.91489 21.8334 6.78181 21.6744 6.61915 21.5931C6.52674 21.5413 6.37886 21.5339 5.73933 21.545L4.9704 21.5561L4.83732 21.6596C4.74859 21.7262 4.68205 21.8223 4.63769 21.9443L4.57115 22.1291H3.89464H3.21444L3.10723 22.2363L3.00003 22.3435V24.6799C3.00003 27.2491 2.99263 27.1826 3.22553 27.2639C3.29577 27.2861 3.60629 27.3046 3.96488 27.3046H4.58224L4.60812 27.4155C4.64139 27.5707 4.80035 27.7445 4.97779 27.8258C5.10348 27.885 5.22548 27.8961 5.79108 27.8961C6.35668 27.8961 6.47868 27.885 6.60437 27.8258C6.78551 27.7445 6.87423 27.6484 6.93708 27.4635L6.98513 27.3231L7.39917 27.312C7.9352 27.2972 8.10525 27.3674 8.40099 27.7149C9.32149 28.8055 10.2679 29.3969 11.4841 29.652C12.0645 29.774 13.1661 29.7629 13.5025 29.6298C13.5986 29.5929 13.6837 29.4635 13.6837 29.3563C13.6837 29.3267 13.643 29.2602 13.5949 29.2047L13.5099 29.1012L13.0811 29.153C11.4841 29.3378 10.0276 28.7685 9.00726 27.5597C8.44166 26.8868 8.23833 26.7833 7.4842 26.7575L6.99253 26.7427V24.7168V22.691L7.53965 22.6762C8.30118 22.6578 8.44166 22.5912 8.85939 22.033C9.09968 21.7188 9.60244 21.2308 9.8797 21.0423L10.0793 20.9092H12.4674H14.8555L15.0367 21.0275C15.2918 21.1975 15.8315 21.7262 16.0681 22.0367C16.4858 22.5912 16.6263 22.6578 17.3915 22.6762L17.9349 22.691V24.7168V26.7427L17.447 26.7575C16.6928 26.7796 16.4673 26.9016 15.935 27.5412C15.6171 27.9293 15.2141 28.2805 14.8001 28.5356C14.4452 28.7537 14.4119 28.787 14.4119 28.9311C14.4119 29.0753 14.5191 29.1899 14.6559 29.1899C14.9997 29.1899 15.813 28.5467 16.5265 27.7149C16.8185 27.3748 16.9849 27.3046 17.5172 27.3046H17.9275L17.9719 27.4303C18.0311 27.6151 18.1493 27.7482 18.3194 27.8258C18.4488 27.885 18.5671 27.8961 19.1364 27.8961C19.702 27.8961 19.824 27.885 19.9497 27.8258C20.1271 27.7445 20.2861 27.5707 20.3193 27.4155L20.3452 27.3046H20.9626C21.3212 27.3046 21.6317 27.2861 21.7019 27.2639C21.9348 27.1826 21.9274 27.2491 21.9274 24.6799V22.3435L21.8202 22.2363L21.713 22.1291H21.0328H20.3563L20.2898 21.9443C20.2454 21.8223 20.1789 21.7262 20.0901 21.6596L19.9571 21.5561L19.1881 21.545C18.5486 21.5339 18.4007 21.5413 18.3083 21.5931C18.1457 21.6744 18.0126 21.8334 17.9682 21.9923L17.9312 22.1365L17.4248 22.1217C16.8222 22.1069 16.8074 22.0995 16.5006 21.6892C16.386 21.5339 16.1605 21.2789 15.9978 21.1199L15.7058 20.8316L15.8204 20.7133C15.9904 20.5358 16.0126 20.436 16.0126 19.863C16.0126 19.242 15.9646 19.0904 15.7206 18.9314C15.5986 18.8501 15.5173 18.8279 15.2548 18.8131L14.9406 18.7909V18.4804C14.9406 18.1218 14.8888 17.9851 14.7077 17.8779C14.6042 17.8113 14.5191 17.8039 13.9905 17.8039H13.3879V16.9906V16.1773H13.6504C13.9092 16.1773 13.9166 16.1736 14.057 16.0332L14.2012 15.889V15.5378V15.1829L15.3398 15.1718L16.4747 15.1607L16.6633 15.0609C17.4581 14.6432 17.3804 13.512 16.5339 13.2273C16.4414 13.1941 15.5875 13.183 13.4249 13.183H10.4416L10.364 13.268C10.2568 13.3826 10.2605 13.5342 10.3751 13.6451L10.4638 13.7375H13.4249H16.3823L16.5228 13.8632C16.6411 13.9741 16.6596 14.011 16.6596 14.1552C16.6596 14.3622 16.556 14.5138 16.3786 14.5766C16.1975 14.6395 8.73 14.6395 8.54886 14.5766C8.37142 14.5138 8.26791 14.3622 8.26791 14.1552C8.26791 14.011 8.28639 13.9741 8.40469 13.8632C8.54517 13.7375 8.54517 13.7375 8.91114 13.7375C9.31779 13.7375 9.43978 13.7005 9.50263 13.5637C9.56177 13.4307 9.55438 13.3752 9.45087 13.2754C9.36585 13.1867 9.33997 13.183 8.92593 13.1867C8.68564 13.1867 8.44166 13.2052 8.37881 13.2273ZM13.6467 15.401V15.6228H12.4637H11.2808V15.401V15.1792H12.4637H13.6467V15.401ZM12.826 16.998L12.8334 17.8039H12.4637H12.0941V17.0165C12.0941 16.5803 12.1051 16.2143 12.1199 16.1995C12.1347 16.1847 12.2974 16.181 12.4822 16.1847L12.8149 16.1958L12.826 16.998ZM14.386 18.5802V18.802H12.4637H10.5414V18.5802V18.3584H12.4637H14.386V18.5802ZM15.4137 19.3861C15.447 19.412 15.4581 19.534 15.4507 19.8778L15.4396 20.3362H12.4637H9.48784L9.47675 19.8778C9.46936 19.534 9.48045 19.412 9.51372 19.3861C9.53959 19.3713 10.8667 19.3566 12.4637 19.3566C14.0607 19.3566 15.3879 19.3713 15.4137 19.3861ZM5.51382 24.7205V27.3452L5.34008 27.3341L5.16263 27.3231L5.15154 24.7058L5.14415 22.0922H5.32899H5.51382V24.7205ZM6.41953 24.7168V27.3231L6.24578 27.3341L6.06834 27.3452V24.7168V22.0885L6.24578 22.0995L6.41953 22.1106V24.7168ZM18.8591 22.7021C18.8591 23.3047 18.8591 23.3158 18.9515 23.4045C19.0624 23.5191 19.214 23.5228 19.3286 23.4156C19.4099 23.338 19.4136 23.3158 19.4136 22.7132V22.0922H19.5985H19.7833L19.7759 24.7058L19.7648 27.3231L19.5911 27.3341L19.4136 27.3452V25.8813V24.4174L19.3175 24.3213C19.2436 24.2474 19.2029 24.2326 19.1068 24.2511C18.8554 24.2991 18.8591 24.2658 18.8591 25.8887V27.3452L18.6854 27.3341L18.5079 27.3231L18.4968 24.7538C18.4931 23.3417 18.4968 22.1624 18.5079 22.1365C18.5153 22.1106 18.593 22.0922 18.6928 22.0922H18.8591V22.7021ZM4.58963 24.7168V26.7501H4.07209H3.55454V24.7168V22.6836H4.07209H4.58963V24.7168ZM21.3729 24.7168V26.7501H20.8554H20.3378V24.7168V22.6836H20.8554H21.3729V24.7168Z" fill="white" fill-opacity="0.92"></path>
</g>
<path d="M2.35842 21.796C1.62703 25.7019 2.86405 28.5584 1.88592 28.4105C1.21077 28.7602 -0.128202 26.5181 0.940727 21.796C1.98805 18.2915 5.32801 12.7917 5.66556 13.2917C6.03843 13.2917 3.04225 18.1442 2.35842 21.796Z" fill="white"></path>
<defs>
<clipPath id="SvgjsClipPath1000">
<rect width="20" height="20" fill="white" transform="translate(3 12)"></rect>
</clipPath>
</defs>
</svg><style>@media (prefers-color-scheme: light) { :root { filter: none; } }
</style></svg>