<svg width="74" height="89" viewBox="0 0 74 89" fill="none" xmlns="http://www.w3.org/2000/svg">
<path d="M28.6208 16.8715V16.8715H28.6285H44.995C46.2719 16.8797 47.5369 16.626 48.712 16.1262C49.8768 15.6307 50.9286 14.9038 51.8038 13.9896C52.7179 13.1145 53.4449 12.0626 53.9404 10.8978C54.2425 10.1876 54.4546 9.4445 54.5734 8.68579H72.1285V87.5H1.5V8.68579H19.0658C19.3884 10.6947 20.3357 12.5657 21.7922 14.0222C23.6042 15.8343 26.0581 16.8582 28.6208 16.8715Z" stroke="#14AAFF" stroke-width="3" stroke-miterlimit="10"/>
<path d="M54.4998 9.00812L54.4998 9.01098C54.5069 9.97376 54.3055 10.9299 53.9053 11.8212C53.505 12.7127 52.9132 13.5228 52.1617 14.1987L52.1327 14.2247L52.1052 14.2522C51.3928 14.9631 50.5293 15.5324 49.5657 15.9207C48.6021 16.309 47.5617 16.5068 46.5098 16.4998V16.4998H46.4998H27.504C25.3597 16.4884 23.3217 15.6757 21.8285 14.2612C20.3404 12.8514 19.5142 10.9609 19.5001 9.00394C19.5247 7.04789 20.3554 5.1611 21.8427 3.75206C23.3341 2.33914 25.3662 1.52266 27.5076 1.5H46.496C48.6402 1.51143 50.6782 2.32411 52.1713 3.73862C53.6625 5.15136 54.489 7.04684 54.4998 9.00812Z" stroke="#14AAFF" stroke-width="3" stroke-miterlimit="10"/>
<path d="M12.2578 35.8142H61.372" stroke="#14AAFF" stroke-width="3" stroke-miterlimit="10"/>
<path d="M12.2578 52.1858H61.372" stroke="#14AAFF" stroke-width="3" stroke-miterlimit="10"/>
<path d="M12.2578 68.5571H40.8864" stroke="#14AAFF" stroke-width="3" stroke-miterlimit="10"/>
</svg>
