<svg width="154" height="36" viewBox="0 0 154 36" fill="none" xmlns="http://www.w3.org/2000/svg">
<path d="M24.8 24.7108C24.8 31.292 19.1652 36 12.5265 36C5.88784 36 0 31.2293 0 24.6481C0 18.0668 9.55306 7.02438 12.1469 -1.2625e-05C14.6143 6.58535 24.8 18.1296 24.8 24.7108Z" fill="#14AAFF"/>
<g clip-path="url(#clip0_1177_42)">
<path d="M8.37881 13.2274C8.03132 13.3531 7.75776 13.6932 7.7097 14.0555C7.66164 14.4584 7.89823 14.8836 8.2753 15.0721C8.44905 15.1571 8.47862 15.1608 9.59135 15.1719L10.7263 15.183V15.5379V15.8891L10.8704 16.0332C11.0109 16.1737 11.0183 16.1774 11.2771 16.1774H11.5395V16.9907V17.804H10.9407C10.4083 17.804 10.3233 17.8114 10.2198 17.8779C10.0387 17.9851 9.9869 18.1219 9.9869 18.4805V18.791L9.67268 18.8132C9.41021 18.828 9.32888 18.8502 9.20689 18.9315C8.9629 19.0905 8.91484 19.242 8.91484 19.8631C8.91484 20.4361 8.93702 20.5359 9.10707 20.7133L9.22167 20.8316L8.92963 21.12C8.76697 21.2789 8.54147 21.534 8.42687 21.6893C8.12004 22.0996 8.10525 22.107 7.50268 22.1218L6.99622 22.1366L6.95926 21.9924C6.91489 21.8335 6.78181 21.6745 6.61915 21.5932C6.52674 21.5414 6.37886 21.534 5.73933 21.5451L4.9704 21.5562L4.83732 21.6597C4.74859 21.7262 4.68205 21.8224 4.63769 21.9444L4.57115 22.1292H3.89464H3.21444L3.10723 22.2364L3.00003 22.3436V24.68C3.00003 27.2492 2.99263 27.1827 3.22553 27.264C3.29577 27.2862 3.60629 27.3047 3.96488 27.3047H4.58224L4.60812 27.4156C4.64139 27.5708 4.80035 27.7446 4.97779 27.8259C5.10348 27.885 5.22548 27.8961 5.79108 27.8961C6.35668 27.8961 6.47868 27.885 6.60437 27.8259C6.78551 27.7446 6.87423 27.6484 6.93708 27.4636L6.98513 27.3231L7.39917 27.312C7.9352 27.2973 8.10525 27.3675 8.40099 27.715C9.32149 28.8055 10.2679 29.397 11.4841 29.6521C12.0645 29.7741 13.1661 29.763 13.5025 29.6299C13.5986 29.5929 13.6837 29.4636 13.6837 29.3564C13.6837 29.3268 13.643 29.2602 13.5949 29.2048L13.5099 29.1013L13.0811 29.153C11.4841 29.3379 10.0276 28.7686 9.00726 27.5597C8.44166 26.8869 8.23833 26.7834 7.4842 26.7575L6.99253 26.7427V24.7169V22.6911L7.53965 22.6763C8.30118 22.6578 8.44166 22.5913 8.85939 22.0331C9.09968 21.7189 9.60244 21.2309 9.8797 21.0423L10.0793 20.9093H12.4674H14.8555L15.0367 21.0276C15.2918 21.1976 15.8315 21.7262 16.0681 22.0368C16.4858 22.5913 16.6263 22.6578 17.3915 22.6763L17.9349 22.6911V24.7169V26.7427L17.447 26.7575C16.6928 26.7797 16.4673 26.9017 15.935 27.5412C15.6171 27.9294 15.2141 28.2806 14.8001 28.5357C14.4452 28.7538 14.4119 28.7871 14.4119 28.9312C14.4119 29.0754 14.5191 29.19 14.6559 29.19C14.9997 29.19 15.813 28.5468 16.5265 27.715C16.8185 27.3749 16.9849 27.3047 17.5172 27.3047H17.9275L17.9719 27.4303C18.0311 27.6152 18.1493 27.7483 18.3194 27.8259C18.4488 27.885 18.5671 27.8961 19.1364 27.8961C19.702 27.8961 19.824 27.885 19.9497 27.8259C20.1271 27.7446 20.2861 27.5708 20.3193 27.4156L20.3452 27.3047H20.9626C21.3212 27.3047 21.6317 27.2862 21.7019 27.264C21.9348 27.1827 21.9274 27.2492 21.9274 24.68V22.3436L21.8202 22.2364L21.713 22.1292H21.0328H20.3563L20.2898 21.9444C20.2454 21.8224 20.1789 21.7262 20.0901 21.6597L19.9571 21.5562L19.1881 21.5451C18.5486 21.534 18.4007 21.5414 18.3083 21.5932C18.1457 21.6745 18.0126 21.8335 17.9682 21.9924L17.9312 22.1366L17.4248 22.1218C16.8222 22.107 16.8074 22.0996 16.5006 21.6893C16.386 21.534 16.1605 21.2789 15.9978 21.12L15.7058 20.8316L15.8204 20.7133C15.9904 20.5359 16.0126 20.4361 16.0126 19.8631C16.0126 19.242 15.9646 19.0905 15.7206 18.9315C15.5986 18.8502 15.5173 18.828 15.2548 18.8132L14.9406 18.791V18.4805C14.9406 18.1219 14.8888 17.9851 14.7077 17.8779C14.6042 17.8114 14.5191 17.804 13.9905 17.804H13.3879V16.9907V16.1774H13.6504C13.9092 16.1774 13.9166 16.1737 14.057 16.0332L14.2012 15.8891V15.5379V15.183L15.3398 15.1719L16.4747 15.1608L16.6632 15.061C17.4581 14.6433 17.3804 13.5121 16.5339 13.2274C16.4414 13.1941 15.5875 13.183 13.4249 13.183H10.4416L10.364 13.2681C10.2568 13.3827 10.2605 13.5342 10.3751 13.6451L10.4638 13.7376H13.4249H16.3823L16.5228 13.8633C16.6411 13.9742 16.6596 14.0111 16.6596 14.1553C16.6596 14.3623 16.556 14.5139 16.3786 14.5767C16.1975 14.6396 8.73 14.6396 8.54886 14.5767C8.37142 14.5139 8.26791 14.3623 8.26791 14.1553C8.26791 14.0111 8.28639 13.9742 8.40469 13.8633C8.54517 13.7376 8.54517 13.7376 8.91114 13.7376C9.31779 13.7376 9.43978 13.7006 9.50263 13.5638C9.56177 13.4307 9.55438 13.3753 9.45087 13.2755C9.36585 13.1867 9.33997 13.183 8.92593 13.1867C8.68564 13.1867 8.44166 13.2052 8.37881 13.2274ZM13.6467 15.4011V15.6229H12.4637H11.2808V15.4011V15.1793H12.4637H13.6467V15.4011ZM12.826 16.9981L12.8334 17.804H12.4637H12.0941V17.0166C12.0941 16.5804 12.1051 16.2144 12.1199 16.1996C12.1347 16.1848 12.2974 16.1811 12.4822 16.1848L12.8149 16.1959L12.826 16.9981ZM14.386 18.5803V18.8021H12.4637H10.5414V18.5803V18.3585H12.4637H14.386V18.5803ZM15.4137 19.3862C15.447 19.4121 15.4581 19.5341 15.4507 19.8779L15.4396 20.3363H12.4637H9.48784L9.47675 19.8779C9.46936 19.5341 9.48045 19.4121 9.51372 19.3862C9.53959 19.3714 10.8667 19.3566 12.4637 19.3566C14.0607 19.3566 15.3879 19.3714 15.4137 19.3862ZM5.51382 24.7206V27.3453L5.34008 27.3342L5.16263 27.3231L5.15154 24.7058L5.14415 22.0922H5.32898H5.51382V24.7206ZM6.41953 24.7169V27.3231L6.24578 27.3342L6.06834 27.3453V24.7169V22.0885L6.24578 22.0996L6.41953 22.1107V24.7169ZM18.8591 22.7022C18.8591 23.3048 18.8591 23.3159 18.9515 23.4046C19.0624 23.5192 19.214 23.5229 19.3286 23.4157C19.4099 23.338 19.4136 23.3159 19.4136 22.7133V22.0922H19.5985H19.7833L19.7759 24.7058L19.7648 27.3231L19.5911 27.3342L19.4136 27.3453V25.8814V24.4175L19.3175 24.3214C19.2436 24.2474 19.2029 24.2326 19.1068 24.2511C18.8554 24.2992 18.8591 24.2659 18.8591 25.8888V27.3453L18.6854 27.3342L18.5079 27.3231L18.4968 24.7539C18.4931 23.3417 18.4968 22.1625 18.5079 22.1366C18.5153 22.1107 18.593 22.0922 18.6928 22.0922H18.8591V22.7022ZM4.58963 24.7169V26.7501H4.07209H3.55454V24.7169V22.6837H4.07209H4.58963V24.7169ZM21.3729 24.7169V26.7501H20.8554H20.3378V24.7169V22.6837H20.8554H21.3729V24.7169Z" fill="white" fill-opacity="0.92"/>
</g>
<path d="M2.35842 21.7959C1.62703 25.7018 2.86405 28.5583 1.88592 28.4104C1.21077 28.7602 -0.128202 26.518 0.940727 21.7959C1.98805 18.2915 5.32801 12.7916 5.66556 13.2916C6.03843 13.2916 3.04225 18.1441 2.35842 21.7959Z" fill="white"/>
<path d="M44.7998 19.8V31H42.6078V23.736L39.4558 28.936H39.1998L36.0478 23.752V31H33.8398V19.8H36.1118L39.3278 25.096L42.5278 19.8H44.7998ZM53.0787 19.8H55.2867L51.9267 27.912C51.0307 30.088 49.5587 31.1173 47.5107 31V28.936C48.108 28.9893 48.588 28.9093 48.9507 28.696C49.324 28.472 49.6333 28.1147 49.8787 27.624L46.2147 19.8H48.4227L50.8707 25.208L53.0787 19.8ZM64.8484 19.8V31H62.6404V21.912H58.6884V31H56.4804V19.8H64.8484Z" fill="white"/>
<path d="M77.7016 25.192C78.6829 25.7573 79.1736 26.6107 79.1736 27.752C79.1736 28.7013 78.8376 29.48 78.1656 30.088C77.4936 30.696 76.6669 31 75.6856 31H70.9336V19.8H75.3496C76.3096 19.8 77.1149 20.0987 77.7656 20.696C78.4269 21.2827 78.7576 22.0347 78.7576 22.952C78.7576 23.88 78.4056 24.6267 77.7016 25.192ZM75.3496 21.864H73.1416V24.328H75.3496C75.6909 24.328 75.9736 24.2107 76.1976 23.976C76.4322 23.7413 76.5496 23.448 76.5496 23.096C76.5496 22.744 76.4376 22.4507 76.2136 22.216C75.9896 21.9813 75.7016 21.864 75.3496 21.864ZM75.6856 28.936C76.0589 28.936 76.3682 28.8133 76.6136 28.568C76.8589 28.312 76.9816 27.992 76.9816 27.608C76.9816 27.2347 76.8589 26.9253 76.6136 26.68C76.3682 26.424 76.0589 26.296 75.6856 26.296H73.1416V28.936H75.6856ZM87.4661 30.008C86.6447 30.8187 85.6421 31.224 84.4581 31.224C83.2741 31.224 82.2714 30.8187 81.4501 30.008C80.6394 29.1867 80.2341 28.184 80.2341 27C80.2341 25.816 80.6394 24.8187 81.4501 24.008C82.2714 23.1867 83.2741 22.776 84.4581 22.776C85.6421 22.776 86.6447 23.1867 87.4661 24.008C88.2874 24.8187 88.6981 25.816 88.6981 27C88.6981 28.184 88.2874 29.1867 87.4661 30.008ZM82.9061 28.584C83.3221 29 83.8394 29.208 84.4581 29.208C85.0767 29.208 85.5941 29 86.0101 28.584C86.4261 28.168 86.6341 27.64 86.6341 27C86.6341 26.36 86.4261 25.832 86.0101 25.416C85.5941 25 85.0767 24.792 84.4581 24.792C83.8394 24.792 83.3221 25 82.9061 25.416C82.5007 25.832 82.2981 26.36 82.2981 27C82.2981 27.64 82.5007 28.168 82.9061 28.584ZM97.0376 29.064H98.0936V33.144H96.0776V31H91.1176V33.144H89.1016V29.064H90.0776C90.5362 28.3813 90.7656 27.4373 90.7656 26.232V23H97.0376V29.064ZM92.2856 29.064H95.0216V24.856H92.7816V26.232C92.7816 27.3627 92.6162 28.3067 92.2856 29.064ZM105.904 30.008C105.082 30.8187 104.08 31.224 102.896 31.224C101.712 31.224 100.709 30.8187 99.8876 30.008C99.0769 29.1867 98.6716 28.184 98.6716 27C98.6716 25.816 99.0769 24.8187 99.8876 24.008C100.709 23.1867 101.712 22.776 102.896 22.776C104.08 22.776 105.082 23.1867 105.904 24.008C106.725 24.8187 107.136 25.816 107.136 27C107.136 28.184 106.725 29.1867 105.904 30.008ZM101.344 28.584C101.76 29 102.277 29.208 102.896 29.208C103.514 29.208 104.032 29 104.448 28.584C104.864 28.168 105.072 27.64 105.072 27C105.072 26.36 104.864 25.832 104.448 25.416C104.032 25 103.514 24.792 102.896 24.792C102.277 24.792 101.76 25 101.344 25.416C100.938 25.832 100.736 26.36 100.736 27C100.736 27.64 100.938 28.168 101.344 28.584ZM115.964 31H113.564L110.652 27.368V31H108.588V23H110.652V26.52L113.404 23H115.868L112.652 26.952L115.964 31ZM122.496 23H124.56V31H122.496V30.056C121.877 30.8347 121.008 31.224 119.888 31.224C118.821 31.224 117.904 30.8187 117.136 30.008C116.378 29.1867 116 28.184 116 27C116 25.816 116.378 24.8187 117.136 24.008C117.904 23.1867 118.821 22.776 119.888 22.776C121.008 22.776 121.877 23.1653 122.496 23.944V23ZM118.688 28.632C119.104 29.048 119.632 29.256 120.272 29.256C120.912 29.256 121.44 29.048 121.856 28.632C122.282 28.2053 122.496 27.6613 122.496 27C122.496 26.3387 122.282 25.8 121.856 25.384C121.44 24.9573 120.912 24.744 120.272 24.744C119.632 24.744 119.104 24.9573 118.688 25.384C118.272 25.8 118.064 26.3387 118.064 27C118.064 27.6613 118.272 28.2053 118.688 28.632ZM131.679 23H133.743V31H131.679V27.96H128.495V31H126.431V23H128.495V26.024H131.679V23ZM141.714 23H143.778V31H141.714V30.056C141.096 30.8347 140.226 31.224 139.106 31.224C138.04 31.224 137.122 30.8187 136.354 30.008C135.597 29.1867 135.218 28.184 135.218 27C135.218 25.816 135.597 24.8187 136.354 24.008C137.122 23.1867 138.04 22.776 139.106 22.776C140.226 22.776 141.096 23.1653 141.714 23.944V23ZM137.906 28.632C138.322 29.048 138.85 29.256 139.49 29.256C140.13 29.256 140.658 29.048 141.074 28.632C141.501 28.2053 141.714 27.6613 141.714 27C141.714 26.3387 141.501 25.8 141.074 25.384C140.658 24.9573 140.13 24.744 139.49 24.744C138.85 24.744 138.322 24.9573 137.906 25.384C137.49 25.8 137.282 26.3387 137.282 27C137.282 27.6613 137.49 28.2053 137.906 28.632ZM152.514 23V31H150.45V24.984H148.242V27.656C148.242 30.1307 147.117 31.2453 144.866 31V29.064C145.293 29.1707 145.618 29.1013 145.842 28.856C146.066 28.6 146.178 28.1627 146.178 27.544V23H152.514Z" fill="#14AAFF"/>
<path d="M37.0898 6.5V7.204H34.2958V12H33.5698V6.5H37.0898ZM37.9098 11.934C37.7925 12.0513 37.6495 12.11 37.4808 12.11C37.3122 12.11 37.1692 12.0513 37.0518 11.934C36.9345 11.8167 36.8758 11.6737 36.8758 11.505C36.8758 11.3363 36.9345 11.1933 37.0518 11.076C37.1692 10.9587 37.3122 10.9 37.4808 10.9C37.6495 10.9 37.7925 10.9587 37.9098 11.076C38.0272 11.1933 38.0858 11.3363 38.0858 11.505C38.0858 11.6737 38.0272 11.8167 37.9098 11.934ZM47.441 4.3V12H46.671V8.92H44.823L42.711 12H41.831L43.976 8.887C43.426 8.79167 42.9676 8.53133 42.601 8.106C42.2343 7.67333 42.051 7.17467 42.051 6.61C42.051 5.972 42.2746 5.42933 42.722 4.982C43.1766 4.52733 43.723 4.3 44.361 4.3H47.441ZM44.361 8.194H46.671V5.026H44.361C43.9356 5.026 43.5726 5.18 43.272 5.488C42.9713 5.796 42.821 6.17 42.821 6.61C42.821 7.04267 42.9713 7.41667 43.272 7.732C43.5726 8.04 43.9356 8.194 44.361 8.194ZM52.0403 6.368C52.8249 6.368 53.4923 6.64667 54.0423 7.204C54.5996 7.76133 54.8783 8.44333 54.8783 9.25C54.8783 10.0567 54.5996 10.7387 54.0423 11.296C53.4923 11.8533 52.8249 12.132 52.0403 12.132C51.0649 12.132 50.3243 11.7287 49.8183 10.922V14.2H49.0923V6.5H49.8183V7.578C50.3243 6.77133 51.0649 6.368 52.0403 6.368ZM50.4453 10.801C50.8633 11.219 51.3766 11.428 51.9853 11.428C52.5939 11.428 53.1073 11.219 53.5253 10.801C53.9433 10.3757 54.1523 9.85867 54.1523 9.25C54.1523 8.64133 53.9433 8.128 53.5253 7.71C53.1073 7.28467 52.5939 7.072 51.9853 7.072C51.3766 7.072 50.8633 7.28467 50.4453 7.71C50.0273 8.128 49.8183 8.64133 49.8183 9.25C49.8183 9.85867 50.0273 10.3757 50.4453 10.801ZM60.8154 6.5H61.5414V12H60.8154V10.922C60.3094 11.7287 59.5688 12.132 58.5934 12.132C57.8088 12.132 57.1378 11.8533 56.5804 11.296C56.0304 10.7387 55.7554 10.0567 55.7554 9.25C55.7554 8.44333 56.0304 7.76133 56.5804 7.204C57.1378 6.64667 57.8088 6.368 58.5934 6.368C59.5688 6.368 60.3094 6.77133 60.8154 7.578V6.5ZM57.1084 10.801C57.5264 11.219 58.0398 11.428 58.6484 11.428C59.2571 11.428 59.7704 11.219 60.1884 10.801C60.6064 10.3757 60.8154 9.85867 60.8154 9.25C60.8154 8.64133 60.6064 8.128 60.1884 7.71C59.7704 7.28467 59.2571 7.072 58.6484 7.072C58.0398 7.072 57.5264 7.28467 57.1084 7.71C56.6904 8.128 56.4814 8.64133 56.4814 9.25C56.4814 9.85867 56.6904 10.3757 57.1084 10.801ZM66.9726 6.5H67.6986V12H66.9726V9.602H63.8046V12H63.0786V6.5H63.8046V8.898H66.9726V6.5ZM71.7969 12.132C70.9682 12.132 70.2789 11.857 69.7289 11.307C69.1789 10.7497 68.9039 10.064 68.9039 9.25C68.9039 8.436 69.1789 7.754 69.7289 7.204C70.2789 6.64667 70.9682 6.368 71.7969 6.368C72.3395 6.368 72.8272 6.5 73.2599 6.764C73.6925 7.02067 74.0079 7.369 74.2059 7.809L73.6119 8.15C73.4652 7.82 73.2269 7.55967 72.8969 7.369C72.5742 7.171 72.2075 7.072 71.7969 7.072C71.1882 7.072 70.6749 7.28467 70.2569 7.71C69.8389 8.128 69.6299 8.64133 69.6299 9.25C69.6299 9.85867 69.8389 10.3757 70.2569 10.801C70.6749 11.219 71.1882 11.428 71.7969 11.428C72.2075 11.428 72.5742 11.3327 72.8969 11.142C73.2195 10.944 73.4725 10.68 73.6559 10.35L74.2609 10.702C74.0335 11.142 73.6999 11.4903 73.2599 11.747C72.8199 12.0037 72.3322 12.132 71.7969 12.132ZM79.7472 12H78.7792L76.0292 9.349V12H75.3032V6.5H76.0292V8.931L78.6472 6.5H79.6372L76.7992 9.14L79.7472 12Z" fill="#F6F9FF"/>
<defs>
<clipPath id="clip0_1177_42">
<rect width="20" height="20" fill="white" transform="translate(3 12)"/>
</clipPath>
</defs>
</svg>
