<svg width="108" height="68" viewBox="0 0 108 68" fill="none" xmlns="http://www.w3.org/2000/svg">
<path d="M49.4128 0.196785C45.9088 0.637413 40.957 2.23205 37.9776 3.88963C33.4874 6.3865 28.7454 10.6668 26.1856 14.5485C24.6749 16.8146 23.2062 19.6891 22.4298 21.8923L21.9263 23.2561H19.891H17.8348V21.9972C17.8348 20.9271 17.7508 20.6333 17.3102 20.2137C16.8066 19.6891 16.7857 19.6891 12.5473 19.6891C9.52586 19.7101 8.18301 19.7731 7.95221 19.9619C7.38569 20.4025 7.13391 21.0949 7.13391 22.186V23.2561H4.2174C2.60178 23.2561 1.13303 23.319 0.944193 23.382C0.0419642 23.7387 0 24.2213 0 33.9569C0 43.6926 0.0419642 44.1752 0.944193 44.5319C1.13303 44.5949 2.60178 44.6578 4.2174 44.6578H7.13391V45.7279C7.13391 46.819 7.38569 47.5114 7.95221 47.952C8.18301 48.1408 9.52586 48.2038 12.5473 48.2248C16.7857 48.2248 16.8066 48.2248 17.3102 47.7002C17.7508 47.2806 17.8348 46.9868 17.8348 45.9167V44.6578H19.891H21.9263L22.4298 46.0216C25.4932 54.5823 32.4803 61.8841 40.915 65.3881C52.0565 70.0041 64.6458 68.3046 74.1716 60.9189C78.9136 57.247 83.0051 51.6029 84.9984 46.0216L85.502 44.6578H87.5372H89.5935V45.9167C89.5935 46.9868 89.6774 47.2806 90.118 47.7002C90.6216 48.2248 90.6426 48.2248 94.8809 48.2248C97.9024 48.2038 99.2452 48.1408 99.476 47.952C100.043 47.5114 100.294 46.819 100.294 45.7279V44.6578H103.211C104.826 44.6578 106.295 44.5949 106.484 44.5319C107.386 44.1752 107.428 43.6926 107.428 33.9569C107.428 24.2213 107.386 23.7387 106.484 23.382C106.295 23.319 104.826 23.2561 103.211 23.2561H100.294V22.186C100.294 21.0949 100.043 20.4025 99.476 19.9619C99.2452 19.7731 97.9024 19.7101 94.8809 19.6891C90.6426 19.6891 90.6216 19.6891 90.118 20.2137C89.6774 20.6333 89.5935 20.9271 89.5935 21.9972V23.2561H87.5372H85.502L84.9984 21.8923C81.914 13.2686 74.8431 5.92489 66.2614 2.3999C63.9743 1.45571 60.2815 0.490532 57.8056 0.196785C55.6235 -0.0759811 51.553 -0.0550003 49.4128 0.196785ZM59.694 4.12043C65.3172 5.33739 70.1011 7.85524 74.2136 11.7789C77.7596 15.178 80.1935 18.9757 81.914 23.8646C82.5854 25.7739 82.8792 26.3404 83.2988 26.5503C83.6346 26.7181 84.8095 26.823 86.7189 26.823H89.5935V33.9569V41.0908H86.7189C84.8095 41.0908 83.6346 41.1958 83.2988 41.3636C82.8792 41.5734 82.5854 42.1399 81.914 44.0493C80.1935 48.9381 77.7596 52.7359 74.2136 56.135C70.0801 60.0796 64.9185 62.7443 59.2324 63.8984C56.6306 64.4229 50.7766 64.4019 48.1539 63.8774C42.4887 62.7443 37.3271 60.0586 33.2146 56.135C29.6687 52.7359 27.2347 48.9381 25.5142 44.0493C24.8428 42.1399 24.549 41.5734 24.1294 41.3636C23.7937 41.1958 22.6187 41.0908 20.7303 41.0908H17.8348V39.3074V37.5239H19.6182H21.4017V35.7404V33.9569H19.6182H17.8348V30.39V26.823H20.7303C22.6187 26.823 23.7937 26.7181 24.1294 26.5503C24.549 26.3404 24.8428 25.7739 25.5142 23.8646C27.2557 18.9548 29.6477 15.199 33.2146 11.7789C37.6628 7.51953 43.0762 4.8548 49.2449 3.84766C51.7838 3.42802 57.1552 3.5749 59.694 4.12043ZM14.2678 33.9569V44.6578H12.4843H10.7009V33.9569V23.2561H12.4843H14.2678V33.9569ZM96.7274 33.9569V44.6578H94.9439H93.1604V33.9569V23.2561H94.9439H96.7274V33.9569ZM7.13391 33.9569V41.0908H5.35043H3.56695V33.9569V26.823H5.35043H7.13391V33.9569ZM103.861 33.9569V41.0908H102.078H100.294V33.9569V26.823H102.078H103.861V33.9569Z" fill="#2D9CDB"/>
<path d="M50.7763 7.2258C46.5589 7.77134 42.2156 9.36597 38.9214 11.5691C37.1799 12.7441 36.6554 13.1847 34.6621 15.136C31.0532 18.703 28.4934 23.4449 27.3603 28.7114C26.8148 31.2083 26.8148 36.7056 27.3603 39.2025C29.6684 49.9453 37.7255 58.0024 48.4683 60.3105C50.9652 60.856 56.4625 60.856 58.9593 60.3105C68.3173 58.2962 75.7869 51.8337 78.9972 42.9793C80.9695 37.5239 81.0325 31.1454 79.207 25.6271C77.8012 21.4097 75.8499 18.2624 72.6187 15.0521C68.7999 11.2334 64.6035 8.90437 59.379 7.70839C57.6375 7.30973 52.4339 7.01598 50.7763 7.2258ZM59.1901 11.3593C63.7013 12.5343 66.8276 14.2968 70.1008 17.57C72.4928 19.9619 73.9825 22.1441 75.1365 24.9137C81.1584 39.3913 71.6115 55.4426 55.9799 57.0792C42.971 58.464 31.242 48.3926 30.4867 35.2159C29.9831 26.2775 34.8299 17.6959 42.8031 13.4365C44.8174 12.3664 47.5031 11.4222 49.5174 11.0865C50.3777 10.9606 51.2379 10.8137 51.4058 10.7718C51.5736 10.7298 52.9585 10.7298 54.4482 10.7718C56.4415 10.8347 57.7214 10.9816 59.1901 11.3593Z" fill="#2D9CDB"/>
<path d="M43.0137 17.9056V19.6891H44.7971H46.5806V17.9056V16.1221H44.7971H43.0137V17.9056Z" fill="#2D9CDB"/>
<path d="M50.1475 17.9056V19.6891H53.7144H57.2814V17.9056V16.1221H53.7144H50.1475V17.9056Z" fill="#2D9CDB"/>
<path d="M60.8477 17.9056V19.6891H62.6311H64.4146V17.9056V16.1221H62.6311H60.8477V17.9056Z" fill="#2D9CDB"/>
<path d="M37.5576 28.6065V33.9569H53.7138H69.87V28.6065V23.2561H53.7138H37.5576V28.6065ZM51.8254 28.6065V30.39H46.475H41.1246V28.6065V26.823H46.475H51.8254V28.6065ZM59.1692 28.6065V30.39H57.3857H55.6022V28.6065V26.823H57.3857H59.1692V28.6065ZM66.3031 28.6065V30.39H64.5196H62.7361V28.6065V26.823H64.5196H66.3031V28.6065Z" fill="#2D9CDB"/>
<path d="M35.8789 39.3073V41.0908H44.7963H53.7137V39.3073V37.5239H44.7963H35.8789V39.3073Z" fill="#2D9CDB"/>
<path d="M62.7357 37.8386C59.1477 38.9926 57.9727 43.8185 60.5955 46.6301C62.4629 48.6234 66.1138 48.7283 68.0651 46.8399C70.7928 44.1961 70.1633 39.8109 66.8482 38.1113C65.7781 37.5658 63.9526 37.4399 62.7357 37.8386ZM65.5473 41.5524C66.3866 42.2868 66.4495 43.189 65.7781 43.9863C65.0647 44.8466 64.0156 44.9095 63.2602 44.1332C61.6866 42.5805 63.8897 40.1046 65.5473 41.5524Z" fill="#2D9CDB"/>
<path d="M39.4463 46.4413V48.2247H47.5244H55.6235L55.5605 46.4832L55.4976 44.7627L47.4824 44.6997L39.4463 44.6578V46.4413Z" fill="#2D9CDB"/>
</svg>
