<svg width="63" height="65" viewBox="0 0 63 65" fill="none" xmlns="http://www.w3.org/2000/svg">
<g clip-path="url(#clip0_1275_70)">
<path d="M49.9158 4.33228H23.8731V10.8333H49.9158V4.33228ZM47.7448 8.66719H26.0428V6.49975H47.7448V8.66719ZM19.5324 19.5005H30.3834V30.3338H19.5324V19.5005ZM54.2552 56.3341H43.4055V45.4995H54.2552V56.3341ZM62.9259 14.031V0H10.8524V32.5H0V58.5003C0 62.0854 2.92138 65 6.51037 65H56.4261C60.0092 65 62.9259 62.088 62.9259 58.5108V14.1354C62.9273 14.1183 62.9365 14.1024 62.9365 14.0825C62.9365 14.0653 62.9273 14.0495 62.9259 14.031ZM10.8524 58.5003C10.8524 60.8899 8.90523 62.8339 6.51037 62.8339C4.11682 62.8339 2.17035 60.8899 2.17035 58.5003V34.6661H10.8524V58.5003ZM35.809 58.5003H19.5324C18.9323 58.5003 18.4476 58.0163 18.4476 57.4172C18.4476 56.8181 18.9323 56.3341 19.5324 56.3341H35.809C36.409 56.3341 36.8937 56.8181 36.8937 57.4172C36.8937 58.0163 36.409 58.5003 35.809 58.5003ZM17.3627 17.3344H32.5531V32.5H17.3627V17.3344ZM35.809 52.0005H19.5324C18.9323 52.0005 18.4476 51.5152 18.4476 50.9175C18.4476 50.3184 18.9323 49.8344 19.5324 49.8344H35.809C36.409 49.8344 36.8937 50.3184 36.8937 50.9175C36.8937 51.5152 36.409 52.0005 35.809 52.0005ZM35.809 45.4995H19.5324C18.9323 45.4995 18.4476 45.0154 18.4476 44.4164C18.4476 43.8187 18.9323 43.3334 19.5324 43.3334H35.809C36.409 43.3334 36.8937 43.8187 36.8937 44.4164C36.8937 45.0154 36.409 45.4995 35.809 45.4995ZM56.4261 58.5003H41.2344V43.3334H56.4261V58.5003ZM55.3413 38.9998H19.5324C18.9323 38.9998 18.4476 38.5157 18.4476 37.9166C18.4476 37.3176 18.9323 36.8336 19.5324 36.8336H55.3413C55.9414 36.8336 56.4261 37.3176 56.4261 37.9166C56.4261 38.5157 55.9414 38.9998 55.3413 38.9998ZM55.3413 32.5H37.9786C37.3799 32.5 36.8937 32.0159 36.8937 31.4169C36.8937 30.8179 37.3799 30.3338 37.9786 30.3338H55.3413C55.9414 30.3338 56.4261 30.8179 56.4261 31.4169C56.4261 32.0159 55.9414 32.5 55.3413 32.5ZM55.3413 26.0003H37.9786C37.3799 26.0003 36.8937 25.5149 36.8937 24.9172C36.8937 24.3181 37.3799 23.8328 37.9786 23.8328H55.3413C55.9414 23.8328 56.4261 24.3181 56.4261 24.9172C56.4261 25.5149 55.9414 26.0003 55.3413 26.0003ZM55.3413 19.5005H37.9786C37.3799 19.5005 36.8937 19.0152 36.8937 18.4175C36.8937 17.8184 37.3799 17.3344 37.9786 17.3344H55.3413C55.9414 17.3344 56.4261 17.8184 56.4261 18.4175C56.4261 19.0152 55.9414 19.5005 55.3413 19.5005ZM60.7562 12.9995H13.0221V2.16615H60.7562V12.9995Z" fill="#14AAFF"/>
</g>
<defs>
<clipPath id="clip0_1275_70">
<rect width="62.9365" height="65" fill="white"/>
</clipPath>
</defs>
</svg>
