<svg width="91" height="91" viewBox="0 0 91 91" fill="none" xmlns="http://www.w3.org/2000/svg">
<path d="M87.8005 6.98883H79.0001V4.1886C79.0001 2.42115 77.5681 0.989136 75.8006 0.989136H70.1996C68.4322 0.989136 67.0002 2.42115 67.0002 4.1886V6.98883H25V4.1886C25 2.42115 23.568 0.989136 21.8005 0.989136H16.1996C14.4321 0.989136 13.0001 2.42115 13.0001 4.1886V6.98918H4.19947C2.43201 6.98918 1 8.4212 1 10.1887V27.7897C1 29.5572 2.43201 30.9892 4.19947 30.9892H12.9999V33.7898C12.9999 35.5572 14.4319 36.9892 16.1994 36.9892H21.8004C23.5678 36.9892 24.9998 35.5572 24.9998 33.7898V30.989H33.9999V66.9891H31.1997C29.4322 66.9891 28.0002 68.4211 28.0002 70.1886V75.7896C28.0002 77.557 29.4322 78.989 31.1997 78.989H34.0003V87.7895C34.0003 89.557 35.4323 90.989 37.1997 90.989H54.8008C56.567 90.989 58.0003 89.5566 58.0003 87.7895V78.989H60.8008C62.5671 78.989 64.0003 77.5567 64.0003 75.7896V70.1886C64.0003 68.4215 62.5671 66.9891 60.8008 66.9891H58.0001V30.9888H67.0002V33.7896C67.0002 35.5571 68.4322 36.9891 70.1996 36.9891H75.8006C77.5681 36.9891 79.0001 35.5571 79.0001 33.7896V30.9888H87.8005C89.568 30.9888 91 29.5568 91 27.7894V10.1883C91.0002 8.42084 89.568 6.98883 87.8005 6.98883ZM4.19947 27.9892C4.08884 27.9892 4.00002 27.9002 4.00002 27.7897V10.1887C4.00002 10.078 4.08902 9.98921 4.19947 9.98921H12.9999V27.9892H4.19947ZM22 33.7896C22 33.9002 21.911 33.989 21.8005 33.989H16.1996C16.0889 33.989 16.0001 33.9 16.0001 33.7896V29.4891V8.48911V4.1886C16.0001 4.07798 16.0891 3.98916 16.1996 3.98916H21.8005C21.9112 3.98916 22 4.07816 22 4.1886V8.48875V29.4887V33.7896ZM55.0004 87.7893C55.0004 87.8992 54.9107 87.9888 54.801 87.9888H37.1999C37.0893 87.9888 37.0005 87.8998 37.0005 87.7893V78.9889H55.0004V87.7893ZM61.0003 70.1884V75.7894C61.0003 75.8993 60.9106 75.9888 60.8008 75.9888H56.5004H35.5004H31.1999C31.0892 75.9888 31.0004 75.8998 31.0004 75.7894V70.1884C31.0004 70.0778 31.0894 69.989 31.1999 69.989H35.5H56.5H60.8008C60.9106 69.9888 61.0003 70.0785 61.0003 70.1884ZM56.5 27.9888H49C48.1715 27.9888 47.5001 28.6604 47.5001 29.4887C47.5001 30.3171 48.1717 30.9887 49 30.9887H55.0001V66.9888H37.0001V30.9888H40.0001C40.8286 30.9888 41.5001 30.3172 41.5001 29.4889C41.5001 28.6606 40.8285 27.989 40.0001 27.989H35.5002H25.0002V9.98885H67.0002V27.9888H56.5ZM76.0001 33.7896C76.0001 33.9002 75.9111 33.989 75.8006 33.989H70.1996C70.089 33.989 70.0002 33.9 70.0002 33.7896V29.4887V8.48875V4.1886C70.0002 4.07798 70.0892 3.98916 70.1996 3.98916H75.8006C75.9112 3.98916 76.0001 4.07816 76.0001 4.1886V8.48875V29.4887V33.7896ZM88.0002 27.7894C88.0002 27.9 87.9112 27.9888 87.8007 27.9888H79.0003V9.98885H87.8007C87.9113 9.98885 88.0002 10.0778 88.0002 10.1883V27.7894Z" fill="#14AAFF" stroke="#14AAFF" stroke-width="0.000758331"/>
</svg>
