<svg width="90" height="91" viewBox="0 0 90 91" fill="none" xmlns="http://www.w3.org/2000/svg">
<path d="M67.5907 0.472992C67.0798 0.718956 66.4744 1.2298 66.2284 1.58928L65.7933 2.23257L57.2413 2.30824C49.1435 2.38393 48.6138 2.42177 47.1758 2.80017C42.2377 4.16242 38.2833 7.47345 36.2021 11.9954C34.8588 14.8902 34.9156 14.3604 34.802 27.5288L34.6885 39.4485L33.9128 39.5053C32.5316 39.5999 32.4181 39.8648 32.3613 43.4407C32.2667 47.8869 32.6451 49.2302 34.2344 50.0627L34.7831 50.3465L34.7453 58.7092L34.6885 67.0719L29.4855 67.1098L24.2824 67.1476L23.7148 66.3719C22.6931 64.9718 22.3715 64.8961 17.9063 64.8961C14.0845 64.8961 13.9899 64.8961 13.7061 65.3124C13.5358 65.5394 13.4033 66.0502 13.4033 66.4476V67.1665H7.08401H0.745759L0.367356 67.6585C-0.143488 68.3207 -0.124568 68.7747 0.443037 69.3424L0.897121 69.8154H7.15969H13.4033V77.478V85.1407H7.08401H0.745759L0.348436 85.6515C0.0646337 86.011 -0.0110469 86.3137 0.0646337 86.6543C0.329516 87.7138 0.215995 87.6949 7.06509 87.7517L13.4033 87.8084V88.5463C13.4033 89.1139 13.5169 89.3599 13.9142 89.6815C14.4061 90.0788 14.5953 90.0788 18.1334 90.0221C21.5769 89.9653 21.8796 89.9275 22.5796 89.5302C22.9959 89.2842 23.5445 88.7923 23.7905 88.4328L24.2446 87.7895H45H65.7554L66.2095 88.4328C66.4555 88.7923 67.0041 89.2842 67.4204 89.5302C68.1204 89.9275 68.4231 89.9653 71.8666 90.0221C75.4047 90.0788 75.5939 90.0788 76.0858 89.6815C76.4831 89.3599 76.5967 89.1139 76.5967 88.5463V87.8084L82.9349 87.7517C89.784 87.6949 89.6705 87.7138 89.9354 86.6543C90.011 86.3137 89.9354 86.011 89.6516 85.6515L89.2542 85.1407H82.916H76.5967V77.478V69.8154H82.8403H89.1029L89.557 69.3424C90.1246 68.7747 90.1435 68.3207 89.6326 67.6585L89.2542 67.1665H82.916H76.5967V66.4097C76.5967 65.8989 76.4642 65.5205 76.2183 65.2745C75.8588 64.915 75.5939 64.8961 71.9991 64.8961C67.6474 64.8961 67.3069 64.9907 66.2852 66.3719L65.7176 67.1476L60.5145 67.1098L55.3115 67.0719L55.2736 58.7471L55.2358 50.4222L56.0304 49.8546C57.4495 48.8329 57.5819 48.3221 57.5819 44.065C57.5819 39.7891 57.5251 39.6188 56.0872 39.5053L55.3115 39.4485V31.4453C55.3115 23.7259 55.3304 23.4231 55.671 23.1583C55.9737 22.9501 56.9954 22.8934 60.874 22.9123H65.7176L66.2852 23.688C67.3069 25.0881 67.6285 25.1638 72.0937 25.1638C75.9155 25.1638 76.0101 25.1638 76.2939 24.7476C76.5588 24.3691 76.5967 22.8934 76.5967 12.563V0.775711L76.1047 0.397308C75.6317 0.0189056 75.3479 -1.52588e-05 72.0747 -1.52588e-05C68.688 -1.52588e-05 68.4988 0.0189056 67.5907 0.472992ZM73.9478 12.5819V22.515H71.3369C69.5584 22.515 68.6502 22.4393 68.4988 22.2879C68.3286 22.1176 68.2718 19.6959 68.2718 12.5441C68.2718 3.68941 68.2907 3.02721 68.6124 2.85693C68.7826 2.74341 70.0692 2.64881 71.4504 2.64881H73.9478V12.5819ZM65.5851 12.6197L65.623 20.2256L60.4767 20.2824C54.4979 20.3392 54.252 20.4148 53.2303 22.042L52.6627 22.9501L52.6059 31.2561L52.5491 39.5431H45H37.4319V28.2289C37.4319 17.5768 37.4509 16.82 37.8103 15.4388C39.2483 9.81955 43.9405 5.7328 49.73 5.05167C50.0895 5.01382 53.7979 4.99491 57.9603 4.99491L65.5284 5.01382L65.5851 12.6197ZM55.0277 44.6137C55.0277 46.4868 54.9709 47.1112 54.725 47.4517L54.4412 47.868H45H35.5588L35.275 47.4517C35.0291 47.1112 34.9723 46.4868 34.9723 44.6137V42.1919H45H55.0277V44.6137ZM52.5681 59.3904C52.5681 68.8126 52.6059 69.3234 53.4573 69.6451C53.7033 69.7397 56.5602 69.8154 59.7766 69.8154H65.623L65.5851 77.4213L65.5284 85.0461H45H24.4716L24.4149 77.4213L24.377 69.8154H30.2234C33.4398 69.8154 36.2967 69.7397 36.5427 69.6451C37.3941 69.3234 37.4319 68.8126 37.4319 59.3904V50.5168H45H52.5681V59.3904ZM21.5012 67.772C21.6715 67.9423 21.7282 70.364 21.7282 77.5159C21.7282 86.7111 21.7093 87.0327 21.3687 87.2219C21.1606 87.3165 19.893 87.4111 18.5307 87.4111H16.0522V77.478V67.5449H18.6631C20.4416 67.5449 21.3498 67.6206 21.5012 67.772ZM73.9478 77.478V87.4111H71.4693C70.107 87.4111 68.8394 87.3165 68.6313 87.2219C68.2907 87.0327 68.2718 86.7111 68.2718 77.5159C68.2718 70.364 68.3286 67.9423 68.4988 67.772C68.6502 67.6206 69.5584 67.5449 71.3369 67.5449H73.9478V77.478Z" fill="#2D9CDB"/>
</svg>
