<svg width="90" height="90" viewBox="0 0 90 90" fill="none" xmlns="http://www.w3.org/2000/svg">
<path d="M44.8967 30.559C44.703 30.6647 44.1922 31.2283 43.7695 31.8271C43.3292 32.426 41.3742 35.1383 39.4369 37.8682C36.6717 41.7078 35.7911 43.0639 35.4917 43.9446C33.6776 49.2812 37.0592 55.2518 42.748 56.7313C44.157 57.1011 46.5347 57.0835 47.9613 56.7136C51.3253 55.8506 54.2138 53.1207 55.2529 49.8271C55.5347 48.9113 55.6404 48.1716 55.6404 46.9211C55.6228 44.0855 55.429 43.7156 50.7265 37.1637C48.4897 34.0463 46.4995 31.2812 46.3057 31.0346C45.883 30.4886 45.3899 30.3301 44.8967 30.559ZM49.0181 38.5551C51.0611 41.426 52.7695 43.9974 53.0161 44.5786C54.1609 47.3966 52.9985 51.06 50.3214 53.1207C46.112 56.3086 40.2294 54.8819 37.975 50.1266C37.429 48.9817 37.3234 48.5767 37.2705 47.2909C37.1648 44.9132 37.3762 44.5082 41.5856 38.6432C43.5934 35.8428 45.2842 33.5532 45.3371 33.5532C45.3899 33.5532 47.0455 35.8076 49.0181 38.5551Z" fill="#14AAFF"/>
<path d="M49.1746 45.281C49.0161 45.4571 48.8048 46.0207 48.6991 46.5138C48.611 47.0246 48.4173 47.6587 48.2588 47.9405C47.7304 48.9796 46.1805 49.8954 44.9476 49.8954C44.4897 49.8954 43.7676 50.5999 43.7676 51.0403C43.7676 51.1635 43.9261 51.4453 44.1022 51.6743C44.384 52.0266 44.5778 52.0794 45.3175 52.0442C46.568 51.9913 47.9946 51.4277 48.9457 50.5823C49.932 49.7017 50.795 48.0285 50.9359 46.69C51.0239 45.8446 50.9887 45.6684 50.6541 45.3338C50.1961 44.8759 49.5621 44.8583 49.1746 45.281Z" fill="#14AAFF"/>
<circle cx="45" cy="45" r="23.5" stroke="#14AAFF" stroke-width="3"/>
<circle cx="6" cy="6" r="4.5" transform="matrix(-1 -1.74846e-07 -1.74846e-07 1 90 39)" stroke="#14AAFF" stroke-width="3"/>
<line x1="69" y1="45" x2="79" y2="45" stroke="#14AAFF" stroke-width="3"/>
<circle cx="6" cy="6" r="4.5" transform="matrix(1 1.43059e-07 1.43059e-07 -1 0 51)" stroke="#14AAFF" stroke-width="3"/>
<line x1="21" y1="45" x2="11" y2="45" stroke="#14AAFF" stroke-width="3"/>
<circle cx="6" cy="6" r="4.5" transform="matrix(-1.31134e-07 1 1 1.31134e-07 40 0)" stroke="#14AAFF" stroke-width="3"/>
<line x1="46" y1="21" x2="46" y2="11" stroke="#14AAFF" stroke-width="3"/>
<circle cx="6" cy="6" r="4.5" transform="matrix(9.93477e-08 -1 -1 -9.93477e-08 52 90)" stroke="#14AAFF" stroke-width="3"/>
<line x1="46" y1="69" x2="46" y2="79" stroke="#14AAFF" stroke-width="3"/>
<circle cx="6" cy="6" r="4.5" transform="matrix(-0.707107 0.707107 0.707107 0.707107 73.5762 8.9375)" stroke="#14AAFF" stroke-width="3"/>
<line x1="62.9686" y1="28.0294" x2="70.0397" y2="20.9584" stroke="#14AAFF" stroke-width="3"/>
<circle cx="6" cy="6" r="4.5" transform="matrix(0.707107 -0.707107 -0.707107 -0.707107 18.4219 81.0624)" stroke="#14AAFF" stroke-width="3"/>
<line x1="29.0294" y1="61.9705" x2="21.9583" y2="69.0415" stroke="#14AAFF" stroke-width="3"/>
<circle cx="6" cy="6" r="4.5" transform="matrix(0.707107 0.707107 0.707107 -0.707107 9 16.4852)" stroke="#14AAFF" stroke-width="3"/>
<line x1="28.0917" y1="27.0918" x2="21.0206" y2="20.0207" stroke="#14AAFF" stroke-width="3"/>
<circle cx="6" cy="6" r="4.5" transform="matrix(-0.707107 -0.707107 -0.707107 0.707107 81.123 71.6396)" stroke="#14AAFF" stroke-width="3"/>
<line x1="62.0314" y1="61.0331" x2="69.1024" y2="68.1042" stroke="#14AAFF" stroke-width="3"/>
</svg>
