<svg width="106" height="65" viewBox="0 0 106 65" fill="none" xmlns="http://www.w3.org/2000/svg">
<path d="M105.442 51.2167L105.442 50.966C105.442 47.2814 102.445 44.2836 98.76 44.2836L35.5783 44.2836C31.5447 44.2836 27.5263 42.8229 24.2635 40.171C21.6227 38.0251 18.2913 36.8434 14.8827 36.8434C6.67601 36.8434 -0.000373123 43.5195 -0.000373482 51.7262L-0.000373576 53.8722L11.0597 48.4645L14.7358 49.5808L14.7358 54.8473L4.13656 59.3899L5.23303 60.7639C5.38753 60.9579 6.84636 62.6942 10.3974 63.9794C10.5682 64.0412 10.7395 64.1002 10.9118 64.1569C16.5862 66.0185 23.04 64.747 27.7547 60.838C29.3185 59.5417 31.1551 58.6446 33.0665 58.2434C34.1554 58.015 35.2719 57.8989 36.3847 57.8989L98.76 57.8989C102.445 57.8991 105.442 54.9015 105.442 51.2167ZM84.8604 46.9628L84.8604 49.8199L42.2189 49.8199L42.2189 52.4992L84.8604 52.4992L84.8604 55.2199L36.3847 55.2199C35.6323 55.2199 34.8792 55.271 34.1308 55.361L34.1308 46.9045C34.6122 46.9402 35.0949 46.963 35.578 46.963L84.8604 46.963L84.8604 46.9628ZM87.5396 55.2199L87.5396 46.963L88.5256 46.963L88.5256 55.2199L87.5396 55.2199ZM102.763 50.966L102.763 51.2167C102.763 53.4242 100.967 55.2199 98.76 55.2199L91.205 55.2199L91.205 46.963L98.76 46.963C100.967 46.9628 102.763 48.7585 102.763 50.966ZM26.0449 58.7757C22.0328 62.1019 16.5543 63.1888 11.7475 61.6114C11.6013 61.5634 11.4555 61.5134 11.3097 61.4605C10.2697 61.084 9.45726 60.6658 8.8455 60.2867L17.4152 56.6142L17.4152 47.5944L10.8297 45.595L2.8867 49.4788C3.94455 43.8194 8.92142 39.5228 14.8829 39.5228C17.6782 39.5228 20.4092 40.4914 22.5738 42.2505C25.1976 44.3834 28.2553 45.8402 31.4518 46.5214L31.4518 55.8904C29.5036 56.4588 27.6518 57.4432 26.0449 58.7757Z" fill="#2D9CDB"/>
<path d="M95.1926 51.1595C95.1926 53.1192 96.787 54.7135 98.7466 54.7135C100.706 54.7135 102.301 53.1192 102.301 51.1595C102.301 49.1997 100.706 47.6051 98.7466 47.6051C96.787 47.6051 95.1926 49.1997 95.1926 51.1595ZM99.6216 51.1595C99.6216 51.6418 99.2293 52.0343 98.7466 52.0343C98.2641 52.0343 97.8718 51.6418 97.8718 51.1595C97.8718 50.6768 98.2643 50.2843 98.7466 50.2843C99.2293 50.2843 99.6216 50.6768 99.6216 51.1595Z" fill="#2D9CDB"/>
<path d="M39.541 52.4992L39.541 49.8199L35.1712 49.8199L35.1712 52.4992L39.541 52.4992Z" fill="#2D9CDB"/>
<path d="M10.249 17.6716C10.249 15.7118 8.65467 14.1174 6.69482 14.1174C4.73497 14.1174 3.14062 15.7118 3.14062 17.6716C3.14062 19.6315 4.73497 21.2258 6.69482 21.2258C8.65467 21.2258 10.249 19.6315 10.249 17.6716ZM5.82006 17.6716C5.82006 17.1892 6.21256 16.7966 6.69504 16.7966C7.17753 16.7966 7.57003 17.1892 7.57003 17.6716C7.57003 18.1541 7.17753 18.5466 6.69504 18.5466C6.21256 18.5466 5.82006 18.1543 5.82006 17.6716Z" fill="#2D9CDB"/>
<path d="M82.7878 29.7321C85.1216 31.1635 87.8089 31.9199 90.5593 31.9199C98.766 31.92 105.442 25.2436 105.442 17.0369L105.442 14.8909L94.3824 20.2984L90.7065 19.1823L90.7065 13.9156L101.305 9.37301L100.209 7.9988C100.056 7.80746 96.4974 3.50486 86.6276 3.42783L86.6276 -8.22421e-07L80.3526 -1.09671e-06L79.6681 1.18801C79.1164 2.15186 78.4817 3.06792 77.7793 3.91344C77.6105 4.11773 77.4354 4.32046 77.2606 4.51492C73.6209 8.55005 68.4167 10.8642 62.9826 10.8642L6.68248 10.8642C2.99767 10.8642 -0.000373437 13.8623 -0.000373599 17.5471L-0.000373609 17.7967C-0.000373771 21.4817 2.99767 24.4795 6.68248 24.4795L60.8573 24.4795L63.938 24.4795C70.6675 24.4798 77.1856 26.2958 82.7878 29.7321ZM96.5889 8.47972L89.7696 11.4023L86.6276 7.52592L86.6276 6.10548C91.7958 6.14992 94.9294 7.46005 96.5889 8.47972ZM79.2515 6.30799C79.4522 6.08472 79.6516 5.85364 79.8418 5.62367C80.6027 4.70783 81.2953 3.71741 81.9008 2.67944L83.9484 2.67944L83.9484 8.47503L88.0273 13.5073L88.0273 21.1689L94.6125 23.1683L102.556 19.2845C101.498 24.9437 96.521 29.2407 90.5593 29.2407C88.3034 29.2407 86.1007 28.6209 84.1886 27.4481C78.1648 23.7535 71.1623 21.8006 63.9382 21.8003L60.8571 21.8003L20.5814 21.8003L20.5814 19.0113L63.2231 19.0113L63.2231 16.332L20.5814 16.332L20.5814 13.5434L62.9824 13.5434C69.1738 13.5437 75.1032 10.9069 79.2515 6.30799ZM17.9021 13.5437L17.9021 21.8005L16.9164 21.8005L16.9164 13.5437L17.9021 13.5437ZM2.67884 17.7969L2.67884 17.5473C2.67884 15.3396 4.47503 13.5437 6.68248 13.5437L14.2372 13.5437L14.2372 21.8005L6.68248 21.8005C4.47503 21.8005 2.67884 20.0044 2.67884 17.7969Z" fill="#2D9CDB"/>
<path d="M85.0654 21.7723L85.0654 10.9003L77.3185 10.9003L77.3185 21.7723L85.0654 21.7723ZM82.3862 13.5795L82.3862 14.9968L79.9977 14.9968L79.9977 13.5795L82.3862 13.5795ZM79.9977 19.0931L79.9977 17.676L82.3862 17.676L82.3862 19.0931L79.9977 19.0931Z" fill="#2D9CDB"/>
<path d="M70.2705 19.0112L70.2705 16.332L65.9005 16.332L65.9005 19.0112L70.2705 19.0112Z" fill="#2D9CDB"/>
</svg>
