<svg width="90" height="90" viewBox="0 0 90 90" fill="none" xmlns="http://www.w3.org/2000/svg">
<path d="M79.3502 80.9173L79.5145 80.753C81.9286 78.3389 81.9286 74.4105 79.5145 71.9964L38.1178 30.5997C35.475 27.9569 33.7992 24.3671 33.399 20.4917C33.0746 17.3555 31.6662 14.3985 29.4329 12.1652C24.0559 6.78817 15.3073 6.78803 9.9303 12.165L8.52421 13.5711L19.3139 17.2745L20.9911 20.4145L17.5405 23.8651L7.61958 19.8968L7.43775 21.5154C7.41185 21.7438 7.23002 23.8373 8.71467 27.0059C8.78606 27.1584 8.85964 27.3092 8.93541 27.4593C11.4335 32.3968 16.4951 35.7923 22.1454 36.3202C24.0193 36.4955 25.8104 37.111 27.3256 38.1005C28.1887 38.6643 28.9964 39.3198 29.7255 40.0489L70.5937 80.9171C73.0077 83.3314 76.9359 83.3316 79.3502 80.9173ZM68.6519 64.645L66.78 66.5168L38.8414 38.5781L37.0859 40.3335L65.0246 68.2722L63.242 70.0549L31.4807 38.2936C30.9877 37.8006 30.4608 37.3407 29.9115 36.9093L35.4522 31.3686C35.7442 31.7074 36.0455 32.0386 36.3621 32.3552L68.6519 64.645ZM64.9974 71.8103L70.4073 66.4004L71.0533 67.0464L65.6434 72.4563L64.9974 71.8103ZM77.759 78.9976L77.5948 79.1618C76.1484 80.6082 73.7953 80.6082 72.349 79.1619L67.399 74.2119L72.8089 68.8019L77.7589 73.7519C79.2054 75.1981 79.2054 77.5513 77.759 78.9976ZM22.3764 33.8487C17.5683 33.3993 13.2666 30.5219 11.1508 26.339C11.0864 26.2118 11.0236 26.0835 10.9628 25.9533C10.528 25.0252 10.2697 24.2189 10.1172 23.5697L18.1384 26.7783L24.0481 20.8685L21.0433 15.2437L13.2944 12.5841C17.6956 9.5692 23.7715 10.0149 27.6775 13.9209C29.5089 15.7524 30.6637 18.1763 30.9294 20.7471C31.2511 23.8637 32.2999 26.8216 33.948 29.3623L27.8094 35.5009C26.1605 34.5968 24.3022 34.0285 22.3764 33.8487Z" fill="#14AAFF"/>
<path d="M79.3502 80.9173L79.5145 80.753C81.9286 78.3389 81.9286 74.4105 79.5145 71.9964L38.1178 30.5997C35.475 27.9569 33.7992 24.3671 33.399 20.4917C33.0746 17.3555 31.6662 14.3985 29.4329 12.1652C24.0559 6.78817 15.3073 6.78803 9.9303 12.165L8.52421 13.5711L19.3139 17.2745L20.9911 20.4145L17.5405 23.8651L7.61958 19.8968L7.43775 21.5154C7.41185 21.7438 7.23002 23.8373 8.71467 27.0059C8.78606 27.1584 8.85964 27.3092 8.93541 27.4593C11.4335 32.3968 16.4951 35.7923 22.1454 36.3202C24.0193 36.4955 25.8104 37.111 27.3256 38.1005C28.1887 38.6643 28.9964 39.3198 29.7255 40.0489L70.5937 80.9171C73.0077 83.3314 76.9359 83.3316 79.3502 80.9173ZM68.6519 64.645L66.78 66.5168L38.8414 38.5781L37.0859 40.3335L65.0246 68.2722L63.242 70.0549L31.4807 38.2936C30.9877 37.8006 30.4608 37.3407 29.9115 36.9093L35.4522 31.3686C35.7442 31.7074 36.0455 32.0386 36.3621 32.3552L68.6519 64.645ZM64.9974 71.8103L70.4073 66.4004L71.0533 67.0464L65.6434 72.4563L64.9974 71.8103ZM77.759 78.9976L77.5948 79.1618C76.1484 80.6082 73.7953 80.6082 72.349 79.1619L67.399 74.2119L72.8089 68.8019L77.7589 73.7519C79.2054 75.1981 79.2054 77.5513 77.759 78.9976ZM22.3764 33.8487C17.5683 33.3993 13.2666 30.5219 11.1508 26.339C11.0864 26.2118 11.0236 26.0835 10.9628 25.9533C10.528 25.0252 10.2697 24.2189 10.1172 23.5697L18.1384 26.7783L24.0481 20.8685L21.0433 15.2437L13.2944 12.5841C17.6956 9.5692 23.7715 10.0149 27.6775 13.9209C29.5089 15.7524 30.6637 18.1763 30.9294 20.7471C31.2511 23.8637 32.2999 26.8216 33.948 29.3623L27.8094 35.5009C26.1605 34.5968 24.3022 34.0285 22.3764 33.8487Z" stroke="#14AAFF"/>
<path d="M72.6721 74.1643C71.3881 75.4482 71.3881 77.5374 72.6721 78.8214C73.9562 80.1055 76.0454 80.1055 77.3293 78.8215C78.6134 77.5374 78.6136 75.4481 77.3295 74.164C76.0455 72.88 73.9562 72.8802 72.6721 74.1643ZM75.5739 77.0661C75.2579 77.3821 74.7438 77.3822 74.4275 77.066C74.1114 76.7498 74.1115 76.2357 74.4275 75.9197C74.7438 75.6034 75.2581 75.6034 75.5741 75.9194C75.8903 76.2357 75.8902 76.7498 75.5739 77.0661Z" fill="#14AAFF"/>
<path d="M72.6721 74.1643C71.3881 75.4482 71.3881 77.5374 72.6721 78.8214C73.9562 80.1055 76.0454 80.1055 77.3293 78.8215C78.6134 77.5374 78.6136 75.4481 77.3295 74.164C76.0455 72.88 73.9562 72.8802 72.6721 74.1643ZM75.5739 77.0661C75.2579 77.3821 74.7438 77.3822 74.4275 77.066C74.1114 76.7498 74.1115 76.2357 74.4275 75.9197C74.7438 75.6034 75.2581 75.6034 75.5741 75.9194C75.8903 76.2357 75.8902 76.7498 75.5739 77.0661Z" stroke="#14AAFF"/>
<path d="M35.3305 38.5788L37.0859 36.8234L34.2228 33.9603L32.4674 35.7157L35.3305 38.5788Z" fill="#14AAFF"/>
<path d="M35.3305 38.5788L37.0859 36.8234L34.2228 33.9603L32.4674 35.7157L35.3305 38.5788Z" stroke="#14AAFF"/>
<path d="M18.2936 73.949C17.0095 72.6649 14.9202 72.6649 13.6361 73.949C12.352 75.233 12.352 77.3223 13.6361 78.6064C14.9202 79.8905 17.0095 79.8905 18.2936 78.6064C19.5776 77.3223 19.5776 75.233 18.2936 73.949ZM15.3917 76.8508C15.0756 76.5347 15.0756 76.0203 15.3917 75.7042C15.7078 75.3881 16.2222 75.3881 16.5383 75.7042C16.8544 76.0204 16.8544 76.5347 16.5383 76.8508C16.2222 77.1669 15.708 77.1671 15.3917 76.8508Z" fill="#14AAFF"/>
<path d="M73.7232 34.3237C76.1901 33.7325 78.4464 32.4674 80.2485 30.6653C85.6255 25.2883 85.6255 16.5396 80.2485 11.1626L78.8424 9.75648L75.1389 20.546L71.9992 22.2232L68.5485 18.7725L72.5166 8.85171L70.8977 8.66988C70.6723 8.64457 65.5216 8.15715 59.0044 14.5734L56.7585 12.3274L52.6471 16.4388L52.977 17.6657C53.2471 18.6587 53.4314 19.6748 53.5251 20.689C53.5484 20.9334 53.5666 21.1809 53.5794 21.4229C53.8385 26.4514 51.945 31.3774 48.3845 34.9378L11.4967 71.8257C9.08242 74.24 9.08242 78.1686 11.4967 80.5829L11.6603 80.7464C14.0747 83.1609 18.0032 83.1607 20.4175 80.7464L55.9128 45.2511L57.9313 43.2327C62.3406 38.8236 67.8011 35.7429 73.7232 34.3237ZM68.8411 11.3567L66.2879 17.7396L61.6895 17.2584L60.7588 16.3278C64.1741 12.9707 67.0856 11.776 68.8411 11.3567ZM56.0587 21.2933C56.0439 21.0155 56.0231 20.7334 55.9971 20.4581C55.8956 19.3595 55.7004 18.2568 55.4171 17.18L56.7586 15.8384L60.5559 19.6357L66.5255 20.2603L71.5454 25.2803L77.1701 22.2756L79.8298 14.5265C82.8446 18.9275 82.3992 25.0038 78.4931 28.9099C77.015 30.388 75.1657 31.4251 73.1445 31.9095C66.777 33.4355 60.9093 36.744 56.176 41.4771L54.1572 43.4958L27.7686 69.8845L25.9412 68.0571L53.88 40.1182L52.1246 38.3628L24.1858 66.3017L22.3587 64.4746L50.1398 36.6934C54.1966 32.6369 56.3539 27.0244 56.0587 21.2933ZM20.6034 66.2301L26.0133 71.64L25.3675 72.2859L19.9575 66.876L20.6034 66.2301ZM13.4158 78.9912L13.2523 78.8276C11.8058 77.3812 11.806 75.0276 13.2523 73.5813L18.2021 68.6314L23.612 74.0413L18.6622 78.9912C17.2159 80.4375 14.8621 80.4375 13.4158 78.9912Z" fill="#14AAFF"/>
<path d="M73.7232 34.3237C76.1901 33.7325 78.4464 32.4674 80.2485 30.6653C85.6255 25.2883 85.6255 16.5396 80.2485 11.1626L78.8424 9.75648L75.1389 20.546L71.9992 22.2232L68.5485 18.7725L72.5166 8.85171L70.8977 8.66988C70.6723 8.64457 65.5216 8.15715 59.0044 14.5734L56.7585 12.3274L52.6471 16.4388L52.977 17.6657C53.2471 18.6587 53.4314 19.6748 53.5251 20.689C53.5484 20.9334 53.5666 21.1809 53.5794 21.4229C53.8385 26.4514 51.945 31.3774 48.3845 34.9378L11.4967 71.8257C9.08242 74.24 9.08242 78.1686 11.4967 80.5829L11.6603 80.7464C14.0747 83.1609 18.0032 83.1607 20.4175 80.7464L55.9128 45.2511L57.9313 43.2327C62.3406 38.8236 67.8011 35.7429 73.7232 34.3237ZM68.8411 11.3567L66.2879 17.7396L61.6895 17.2584L60.7588 16.3278C64.1741 12.9707 67.0856 11.776 68.8411 11.3567ZM56.0587 21.2933C56.0439 21.0155 56.0231 20.7334 55.9971 20.4581C55.8956 19.3595 55.7004 18.2568 55.4171 17.18L56.7586 15.8384L60.5559 19.6357L66.5255 20.2603L71.5454 25.2803L77.1701 22.2756L79.8298 14.5265C82.8446 18.9275 82.3992 25.0038 78.4931 28.9099C77.015 30.388 75.1657 31.4251 73.1445 31.9095C66.777 33.4355 60.9093 36.744 56.176 41.4771L54.1572 43.4958L27.7686 69.8845L25.9412 68.0571L53.88 40.1182L52.1246 38.3628L24.1858 66.3017L22.3587 64.4746L50.1398 36.6934C54.1966 32.6369 56.3539 27.0244 56.0587 21.2933ZM20.6034 66.2301L26.0133 71.64L25.3675 72.2859L19.9575 66.876L20.6034 66.2301ZM13.4158 78.9912L13.2523 78.8276C11.8058 77.3812 11.806 75.0276 13.2523 73.5813L18.2021 68.6314L23.612 74.0413L18.6622 78.9912C17.2159 80.4375 14.8621 80.4375 13.4158 78.9912Z" stroke="#14AAFF"/>
<path d="M70.0003 27.6164L62.877 20.493L57.8012 25.5688L64.9245 32.6922L70.0003 27.6164ZM62.877 24.0039L63.8056 24.9325L62.2406 26.4975L61.312 25.5688L62.877 24.0039ZM64.9245 29.1814L63.996 28.2529L65.561 26.6879L66.4895 27.6164L64.9245 29.1814Z" fill="#14AAFF"/>
<path d="M58.4976 35.5008L56.7422 33.7454L53.8789 36.6086L55.6344 38.364L58.4976 35.5008Z" fill="#14AAFF"/>
</svg>
